<svg xmlns="http://www.w3.org/2000/svg" xmlns:xlink="http://www.w3.org/1999/xlink" viewBox="0 0 80 80" fill="#F07D29">
  <path d="M40 4C37.050781 4 34.699219 6.191406 34.203125 9L18 9C16.355469 9 15 10.355469 15 12L15 68C15 69.644531 16.355469 71 18 71L62 71C63.644531 71 65 69.644531 65 68L65 12C65 10.355469 63.644531 9 62 9L45.796875 9C45.300781 6.191406 42.949219 4 40 4 Z M 40 6C42.21875 6 44 7.78125 44 10L44 11L50 11L50 15C50 15.566406 49.566406 16 49 16L31 16C30.433594 16 30 15.566406 30 15L30 11L36 11L36 10C36 7.78125 37.78125 6 40 6 Z M 40 9C39.449219 9 39 9.449219 39 10C39 10.550781 39.449219 11 40 11C40.550781 11 41 10.550781 41 10C41 9.449219 40.550781 9 40 9 Z M 18 11L28 11L28 15C28 16.644531 29.355469 18 31 18L49 18C50.644531 18 52 16.644531 52 15L52 11L62 11C62.566406 11 63 11.433594 63 12L63 68C63 68.566406 62.566406 69 62 69L18 69C17.433594 69 17 68.566406 17 68L17 12C17 11.433594 17.433594 11 18 11 Z M 30 25C27.25 25 25 27.25 25 30C25 31.519531 25.703125 32.871094 26.78125 33.792969C24.539063 34.960938 23 37.304688 23 40L25 40C25 37.226563 27.226563 35 30 35C32.773438 35 35 37.226563 35 40L37 40C37 37.304688 35.460938 34.960938 33.21875 33.792969C34.296875 32.871094 35 31.519531 35 30C35 27.25 32.75 25 30 25 Z M 41 26L41 28L55 28L55 26 Z M 30 27C31.667969 27 33 28.332031 33 30C33 31.667969 31.667969 33 30 33C28.332031 33 27 31.667969 27 30C27 28.332031 28.332031 27 30 27 Z M 41 32L41 34L51 34L51 32 Z M 41 38L41 40L55 40L55 38 Z M 24 47C23.449219 47 23 47.449219 23 48C23 48.550781 23.449219 49 24 49C24.550781 49 25 48.550781 25 48C25 47.449219 24.550781 47 24 47 Z M 28 47C27.449219 47 27 47.449219 27 48C27 48.550781 27.449219 49 28 49C28.550781 49 29 48.550781 29 48C29 47.449219 28.550781 47 28 47 Z M 32 47C31.449219 47 31 47.449219 31 48C31 48.550781 31.449219 49 32 49C32.550781 49 33 48.550781 33 48C33 47.449219 32.550781 47 32 47 Z M 36 47C35.449219 47 35 47.449219 35 48C35 48.550781 35.449219 49 36 49C36.550781 49 37 48.550781 37 48C37 47.449219 36.550781 47 36 47 Z M 40 47C39.449219 47 39 47.449219 39 48C39 48.550781 39.449219 49 40 49C40.550781 49 41 48.550781 41 48C41 47.449219 40.550781 47 40 47 Z M 44 47C43.449219 47 43 47.449219 43 48C43 48.550781 43.449219 49 44 49C44.550781 49 45 48.550781 45 48C45 47.449219 44.550781 47 44 47 Z M 48 47C47.449219 47 47 47.449219 47 48C47 48.550781 47.449219 49 48 49C48.550781 49 49 48.550781 49 48C49 47.449219 48.550781 47 48 47 Z M 52 47C51.449219 47 51 47.449219 51 48C51 48.550781 51.449219 49 52 49C52.550781 49 53 48.550781 53 48C53 47.449219 52.550781 47 52 47 Z M 56 47C55.449219 47 55 47.449219 55 48C55 48.550781 55.449219 49 56 49C56.550781 49 57 48.550781 57 48C57 47.449219 56.550781 47 56 47 Z M 24 53C23.449219 53 23 53.449219 23 54C23 54.550781 23.449219 55 24 55C24.550781 55 25 54.550781 25 54C25 53.449219 24.550781 53 24 53 Z M 28 53C27.449219 53 27 53.449219 27 54C27 54.550781 27.449219 55 28 55C28.550781 55 29 54.550781 29 54C29 53.449219 28.550781 53 28 53 Z M 32 53C31.449219 53 31 53.449219 31 54C31 54.550781 31.449219 55 32 55C32.550781 55 33 54.550781 33 54C33 53.449219 32.550781 53 32 53 Z M 36 53C35.449219 53 35 53.449219 35 54C35 54.550781 35.449219 55 36 55C36.550781 55 37 54.550781 37 54C37 53.449219 36.550781 53 36 53 Z M 40 53C39.449219 53 39 53.449219 39 54C39 54.550781 39.449219 55 40 55C40.550781 55 41 54.550781 41 54C41 53.449219 40.550781 53 40 53 Z M 44 53C43.449219 53 43 53.449219 43 54C43 54.550781 43.449219 55 44 55C44.550781 55 45 54.550781 45 54C45 53.449219 44.550781 53 44 53 Z M 48 53C47.449219 53 47 53.449219 47 54C47 54.550781 47.449219 55 48 55C48.550781 55 49 54.550781 49 54C49 53.449219 48.550781 53 48 53 Z M 24 59C23.449219 59 23 59.449219 23 60C23 60.550781 23.449219 61 24 61C24.550781 61 25 60.550781 25 60C25 59.449219 24.550781 59 24 59 Z M 28 59C27.449219 59 27 59.449219 27 60C27 60.550781 27.449219 61 28 61C28.550781 61 29 60.550781 29 60C29 59.449219 28.550781 59 28 59 Z M 32 59C31.449219 59 31 59.449219 31 60C31 60.550781 31.449219 61 32 61C32.550781 61 33 60.550781 33 60C33 59.449219 32.550781 59 32 59 Z M 36 59C35.449219 59 35 59.449219 35 60C35 60.550781 35.449219 61 36 61C36.550781 61 37 60.550781 37 60C37 59.449219 36.550781 59 36 59 Z M 40 59C39.449219 59 39 59.449219 39 60C39 60.550781 39.449219 61 40 61C40.550781 61 41 60.550781 41 60C41 59.449219 40.550781 59 40 59 Z M 44 59C43.449219 59 43 59.449219 43 60C43 60.550781 43.449219 61 44 61C44.550781 61 45 60.550781 45 60C45 59.449219 44.550781 59 44 59 Z M 48 59C47.449219 59 47 59.449219 47 60C47 60.550781 47.449219 61 48 61C48.550781 61 49 60.550781 49 60C49 59.449219 48.550781 59 48 59 Z M 52 59C51.449219 59 51 59.449219 51 60C51 60.550781 51.449219 61 52 61C52.550781 61 53 60.550781 53 60C53 59.449219 52.550781 59 52 59 Z M 56 59C55.449219 59 55 59.449219 55 60C55 60.550781 55.449219 61 56 61C56.550781 61 57 60.550781 57 60C57 59.449219 56.550781 59 56 59Z" fill="#F07D29" />
</svg>