<svg xmlns="http://www.w3.org/2000/svg" xmlns:xlink="http://www.w3.org/1999/xlink" viewBox="0 0 80 80" fill="#F07D29">
  <path d="M13.636719 10C11.640625 10 10 11.640625 10 13.636719L10 66.363281C10 68.359375 11.640625 70 13.636719 70L66.363281 70C68.359375 70 70 68.359375 70 66.363281L70 13.636719C70 11.640625 68.359375 10 66.363281 10 Z M 13.636719 12L66.363281 12C67.269531 12 68 12.730469 68 13.636719L68 66.363281C68 67.269531 67.269531 68 66.363281 68L60 68L60 66.199219C60 64.441406 58.910156 62.976563 57.515625 61.773438C56.121094 60.570313 54.347656 59.570313 52.589844 58.738281C49.402344 57.238281 46.566406 56.410156 46 56.25L46 53.492188C48.347656 51.710938 49.882813 48.914063 49.957031 45.753906C50.820313 45.480469 51.53125 44.828125 51.53125 43.875C51.53125 44.046875 51.53125 43.902344 51.570313 43.765625C51.609375 43.625 51.664063 43.4375 51.722656 43.230469C51.820313 42.902344 51.933594 42.574219 51.980469 42.171875L51.984375 42.171875C51.984375 42.171875 53 36.558594 53 33.75C53 30.929688 51.632813 28.890625 49.972656 27.683594C48.488281 26.597656 46.851563 26.171875 45.496094 26.078125C45.304688 25.742188 45.179688 25.363281 44.40625 24.730469C43.335938 23.84375 41.574219 23 39 23C35.300781 23 31.902344 24.875 29.402344 26.691406C26.898438 28.507813 25.253906 30.332031 25.253906 30.332031L23.996094 31.734375L25.863281 31.988281C25.863281 31.988281 26.367188 32.0625 26.90625 32.460938C27.449219 32.859375 28 33.484375 28 35L28 42L28.011719 42C28.035156 42.480469 28.164063 42.859375 28.277344 43.230469C28.335938 43.4375 28.390625 43.625 28.429688 43.765625C28.46875 43.902344 28.46875 44.046875 28.46875 43.875C28.46875 44.828125 29.179688 45.480469 30.042969 45.753906C30.117188 48.914063 31.652344 51.710938 34 53.492188L34 56.25C33.433594 56.410156 30.597656 57.238281 27.410156 58.738281C25.652344 59.570313 23.878906 60.570313 22.484375 61.773438C21.089844 62.976563 20 64.441406 20 66.199219L20 68L13.636719 68C12.730469 68 12 67.269531 12 66.363281L12 13.636719C12 12.730469 12.730469 12 13.636719 12 Z M 18 17C17.449219 17 17 17.449219 17 18C17 18.550781 17.449219 19 18 19C18.550781 19 19 18.550781 19 18C19 17.449219 18.550781 17 18 17 Z M 22 17C21.449219 17 21 17.449219 21 18C21 18.550781 21.449219 19 22 19C22.550781 19 23 18.550781 23 18C23 17.449219 22.550781 17 22 17 Z M 26 17C25.449219 17 25 17.449219 25 18C25 18.550781 25.449219 19 26 19C26.550781 19 27 18.550781 27 18C27 17.449219 26.550781 17 26 17 Z M 30 17C29.449219 17 29 17.449219 29 18C29 18.550781 29.449219 19 30 19C30.550781 19 31 18.550781 31 18C31 17.449219 30.550781 17 30 17 Z M 34 17C33.449219 17 33 17.449219 33 18C33 18.550781 33.449219 19 34 19C34.550781 19 35 18.550781 35 18C35 17.449219 34.550781 17 34 17 Z M 38 17C37.449219 17 37 17.449219 37 18C37 18.550781 37.449219 19 38 19C38.550781 19 39 18.550781 39 18C39 17.449219 38.550781 17 38 17 Z M 42 17C41.449219 17 41 17.449219 41 18C41 18.550781 41.449219 19 42 19C42.550781 19 43 18.550781 43 18C43 17.449219 42.550781 17 42 17 Z M 46 17C45.449219 17 45 17.449219 45 18C45 18.550781 45.449219 19 46 19C46.550781 19 47 18.550781 47 18C47 17.449219 46.550781 17 46 17 Z M 50 17C49.449219 17 49 17.449219 49 18C49 18.550781 49.449219 19 50 19C50.550781 19 51 18.550781 51 18C51 17.449219 50.550781 17 50 17 Z M 54 17C53.449219 17 53 17.449219 53 18C53 18.550781 53.449219 19 54 19C54.550781 19 55 18.550781 55 18C55 17.449219 54.550781 17 54 17 Z M 58 17C57.449219 17 57 17.449219 57 18C57 18.550781 57.449219 19 58 19C58.550781 19 59 18.550781 59 18C59 17.449219 58.550781 17 58 17 Z M 62 17C61.449219 17 61 17.449219 61 18C61 18.550781 61.449219 19 62 19C62.550781 19 63 18.550781 63 18C63 17.449219 62.550781 17 62 17 Z M 18 21C17.449219 21 17 21.449219 17 22C17 22.550781 17.449219 23 18 23C18.550781 23 19 22.550781 19 22C19 21.449219 18.550781 21 18 21 Z M 62 21C61.449219 21 61 21.449219 61 22C61 22.550781 61.449219 23 62 23C62.550781 23 63 22.550781 63 22C63 21.449219 62.550781 21 62 21 Z M 18 25C17.449219 25 17 25.449219 17 26C17 26.550781 17.449219 27 18 27C18.550781 27 19 26.550781 19 26C19 25.449219 18.550781 25 18 25 Z M 39 25C41.152344 25 42.390625 25.65625 43.136719 26.269531C43.882813 26.886719 44.078125 27.390625 44.078125 27.390625L44.339844 28L45 28C45.9375 28 47.546875 28.386719 48.796875 29.296875C50.046875 30.210938 51 31.542969 51 33.75C51 35.292969 50.628906 37.875 50.335938 39.753906C50.226563 39.71875 50.113281 39.6875 50 39.664063L50 37.75C50 35.117188 48.914063 33.316406 47.820313 32.253906C46.726563 31.195313 45.566406 30.800781 45.566406 30.800781L44.996094 30.609375L44.558594 31.027344C44.558594 31.027344 44.128906 31.457031 43.015625 31.964844C41.90625 32.472656 40.179688 33 37.75 33C36.335938 33 34.523438 33.488281 32.933594 34.601563C31.445313 35.640625 30.273438 37.378906 30.113281 39.613281C30.074219 39.621094 30.039063 39.632813 30 39.640625L30 35C30 32.925781 29.050781 31.554688 28.09375 30.847656C27.953125 30.75 27.949219 30.808594 27.8125 30.730469C28.378906 30.148438 28.898438 29.523438 30.574219 28.308594C32.898438 26.625 35.996094 25 39 25 Z M 62 25C61.449219 25 61 25.449219 61 26C61 26.550781 61.449219 27 62 27C62.550781 27 63 26.550781 63 26C63 25.449219 62.550781 25 62 25 Z M 18 29C17.449219 29 17 29.449219 17 30C17 30.550781 17.449219 31 18 31C18.550781 31 19 30.550781 19 30C19 29.449219 18.550781 29 18 29 Z M 62 29C61.449219 29 61 29.449219 61 30C61 30.550781 61.449219 31 62 31C62.550781 31 63 30.550781 63 30C63 29.449219 62.550781 29 62 29 Z M 45.25 32.90625C45.464844 32.996094 45.8125 33.09375 46.429688 33.691406C47.210938 34.449219 48 35.644531 48 37.75L48 42.488281L49.488281 41.652344C49.5625 41.609375 49.605469 41.589844 49.660156 41.558594C49.84375 41.601563 50 41.699219 50 41.847656C50 41.835938 49.921875 42.28125 49.808594 42.667969C49.75 42.859375 49.6875 43.054688 49.640625 43.238281C49.589844 43.425781 49.53125 43.546875 49.53125 43.875C49.53125 43.933594 49.488281 44 49.359375 44L48 44L48 45.527344C48 49.472656 45.15625 52.726563 41.410156 53.390625L41.128906 53.441406L40.917969 53.640625C40.664063 53.867188 40.355469 54 40 54C39.644531 54 39.335938 53.867188 39.082031 53.640625L38.871094 53.441406L38.589844 53.390625C34.84375 52.726563 32 49.472656 32 45.527344L32 44L30.640625 44C30.511719 44 30.46875 43.933594 30.46875 43.875C30.46875 43.546875 30.410156 43.425781 30.359375 43.238281C30.3125 43.054688 30.25 42.859375 30.191406 42.667969C30.078125 42.28125 30 41.835938 30 41.847656C30 41.699219 30.15625 41.601563 30.339844 41.558594C30.394531 41.589844 30.4375 41.609375 30.511719 41.652344L32 42.484375L32 40.039063C32 38.253906 32.875 37.082031 34.078125 36.238281C35.285156 35.398438 36.847656 35 37.75 35C40.472656 35 42.496094 34.402344 43.847656 33.785156C44.75 33.371094 44.929688 33.160156 45.25 32.90625 Z M 18 33C17.449219 33 17 33.449219 17 34C17 34.550781 17.449219 35 18 35C18.550781 35 19 34.550781 19 34C19 33.449219 18.550781 33 18 33 Z M 62 33C61.449219 33 61 33.449219 61 34C61 34.550781 61.449219 35 62 35C62.550781 35 63 34.550781 63 34C63 33.449219 62.550781 33 62 33 Z M 18 37C17.449219 37 17 37.449219 17 38C17 38.550781 17.449219 39 18 39C18.550781 39 19 38.550781 19 38C19 37.449219 18.550781 37 18 37 Z M 62 37C61.449219 37 61 37.449219 61 38C61 38.550781 61.449219 39 62 39C62.550781 39 63 38.550781 63 38C63 37.449219 62.550781 37 62 37 Z M 18 41C17.449219 41 17 41.449219 17 42C17 42.550781 17.449219 43 18 43C18.550781 43 19 42.550781 19 42C19 41.449219 18.550781 41 18 41 Z M 62 41C61.449219 41 61 41.449219 61 42C61 42.550781 61.449219 43 62 43C62.550781 43 63 42.550781 63 42C63 41.449219 62.550781 41 62 41 Z M 36 42C35.449219 42 35 42.449219 35 43C35 43.550781 35.449219 44 36 44C36.550781 44 37 43.550781 37 43C37 42.449219 36.550781 42 36 42 Z M 44 42C43.449219 42 43 42.449219 43 43C43 43.550781 43.449219 44 44 44C44.550781 44 45 43.550781 45 43C45 42.449219 44.550781 42 44 42 Z M 18 45C17.449219 45 17 45.449219 17 46C17 46.550781 17.449219 47 18 47C18.550781 47 19 46.550781 19 46C19 45.449219 18.550781 45 18 45 Z M 62 45C61.449219 45 61 45.449219 61 46C61 46.550781 61.449219 47 62 47C62.550781 47 63 46.550781 63 46C63 45.449219 62.550781 45 62 45 Z M 18 49C17.449219 49 17 49.449219 17 50C17 50.550781 17.449219 51 18 51C18.550781 51 19 50.550781 19 50C19 49.449219 18.550781 49 18 49 Z M 62 49C61.449219 49 61 49.449219 61 50C61 50.550781 61.449219 51 62 51C62.550781 51 63 50.550781 63 50C63 49.449219 62.550781 49 62 49 Z M 18 53C17.449219 53 17 53.449219 17 54C17 54.550781 17.449219 55 18 55C18.550781 55 19 54.550781 19 54C19 53.449219 18.550781 53 18 53 Z M 62 53C61.449219 53 61 53.449219 61 54C61 54.550781 61.449219 55 62 55C62.550781 55 63 54.550781 63 54C63 53.449219 62.550781 53 62 53 Z M 36 54.667969C36.632813 54.945313 37.296875 55.167969 37.988281 55.308594C38.546875 55.730469 39.242188 56 40 56C40.757813 56 41.453125 55.730469 42.011719 55.308594C42.703125 55.167969 43.367188 54.945313 44 54.667969L44 57.828125C43.882813 58.0625 42.863281 60 40 60C37.136719 60 36.117188 58.0625 36 57.828125 Z M 18 57C17.449219 57 17 57.449219 17 58C17 58.550781 17.449219 59 18 59C18.550781 59 19 58.550781 19 58C19 57.449219 18.550781 57 18 57 Z M 62 57C61.449219 57 61 57.449219 61 58C61 58.550781 61.449219 59 62 59C62.550781 59 63 58.550781 63 58C63 57.449219 62.550781 57 62 57 Z M 34 58.34375L34 58.378906L34.105469 58.589844C34.105469 58.589844 35.894531 62 40 62C44.105469 62 45.894531 58.589844 45.894531 58.589844L46 58.378906L46 58.34375C47.039063 58.660156 49.160156 59.335938 51.734375 60.546875C53.394531 61.332031 55.042969 62.28125 56.210938 63.289063C57.378906 64.296875 58 65.296875 58 66.199219L58 68L22 68L22 66.199219C22 65.296875 22.621094 64.296875 23.789063 63.289063C24.957031 62.28125 26.605469 61.332031 28.265625 60.546875C30.839844 59.335938 32.960938 58.660156 34 58.34375Z" fill="#F07D29" />
</svg>