<svg xmlns="http://www.w3.org/2000/svg" xmlns:xlink="http://www.w3.org/1999/xlink" viewBox="0 0 64 64" fill="#F07D29">
  <path d="M28.929688 6C22.695313 6 17.324219 10.445313 16.15625 16.566406L10.171875 48L9 48C7.347656 48 6 49.347656 6 51L6 58L3 58C2.449219 58 2 58.445313 2 59C2 59.554688 2.449219 60 3 60L61 60C61.550781 60 62 59.554688 62 59C62 58.445313 61.550781 58 61 58L58 58L58 51C58 49.347656 56.652344 48 55 48L53.828125 48L47.839844 16.566406C46.675781 10.445313 41.304688 6 35.070313 6 Z M 7.023438 7.507813C6.632813 7.515625 6.265625 7.753906 6.109375 8.136719C5.90625 8.648438 6.152344 9.230469 6.664063 9.4375L10.375 10.9375C10.496094 10.988281 10.621094 11.011719 10.746094 11.011719C11.140625 11.011719 11.519531 10.773438 11.675781 10.386719C11.882813 9.871094 11.632813 9.289063 11.125 9.082031L7.414063 7.585938C7.285156 7.53125 7.152344 7.507813 7.023438 7.507813 Z M 56.976563 7.511719C56.847656 7.507813 56.714844 7.53125 56.585938 7.585938L52.875 9.082031C52.363281 9.289063 52.117188 9.871094 52.324219 10.386719C52.480469 10.773438 52.859375 11.011719 53.253906 11.011719C53.378906 11.011719 53.503906 10.988281 53.625 10.9375L57.335938 9.4375C57.847656 9.230469 58.09375 8.648438 57.890625 8.136719C57.734375 7.753906 57.367188 7.519531 56.976563 7.511719 Z M 28.929688 8L35.070313 8C40.34375 8 44.890625 11.761719 45.875 16.941406L51.792969 48L39 48L39 47C39 45.347656 37.652344 44 36 44L28 44C26.347656 44 25 45.347656 25 47L25 48L12.207031 48L18.125 16.941406C19.109375 11.761719 23.65625 8 28.929688 8 Z M 41.8125 15.015625C41.269531 15.121094 40.914063 15.644531 41.015625 16.1875L41.558594 19.019531C41.648438 19.5 42.066406 19.832031 42.539063 19.832031C42.601563 19.832031 42.664063 19.828125 42.726563 19.816406C43.269531 19.710938 43.625 19.191406 43.519531 18.644531L42.984375 15.8125C42.878906 15.273438 42.355469 14.917969 41.8125 15.015625 Z M 1 18C0.449219 18 0 18.445313 0 19C0 19.554688 0.449219 20 1 20L9 20C9.550781 20 10 19.554688 10 19C10 18.445313 9.550781 18 9 18 Z M 55 18C54.449219 18 54 18.445313 54 19C54 19.554688 54.449219 20 55 20L63 20C63.550781 20 64 19.554688 64 19C64 18.445313 63.550781 18 63 18 Z M 43.097656 21.765625C42.554688 21.871094 42.199219 22.394531 42.300781 22.9375L45.222656 38.261719C45.3125 38.742188 45.734375 39.074219 46.203125 39.074219C46.265625 39.074219 46.328125 39.070313 46.390625 39.058594C46.933594 38.953125 47.289063 38.429688 47.1875 37.886719L44.265625 22.5625C44.164063 22.019531 43.636719 21.667969 43.097656 21.765625 Z M 10.765625 26.988281C10.632813 26.988281 10.5 27.011719 10.375 27.0625L6.664063 28.5625C6.152344 28.769531 5.90625 29.351563 6.109375 29.863281C6.269531 30.253906 6.644531 30.488281 7.039063 30.488281C7.164063 30.488281 7.292969 30.464844 7.414063 30.417969L11.125 28.917969C11.636719 28.710938 11.882813 28.128906 11.675781 27.613281C11.519531 27.230469 11.152344 26.996094 10.765625 26.988281 Z M 53.234375 26.988281C52.847656 26.996094 52.480469 27.230469 52.324219 27.613281C52.117188 28.128906 52.367188 28.710938 52.875 28.917969L56.585938 30.417969C56.707031 30.464844 56.835938 30.488281 56.960938 30.488281C57.355469 30.488281 57.730469 30.253906 57.890625 29.863281C58.09375 29.351563 57.847656 28.769531 57.335938 28.5625L53.625 27.0625C53.5 27.011719 53.367188 26.988281 53.234375 26.988281 Z M 28 30C27.746094 30 27.488281 30.097656 27.292969 30.292969C26.902344 30.683594 26.902344 31.316406 27.292969 31.707031L29.292969 33.707031C29.488281 33.902344 29.742188 34 30 34C30.257813 34 30.511719 33.902344 30.707031 33.707031C31.097656 33.316406 31.097656 32.683594 30.707031 32.292969L28.707031 30.292969C28.511719 30.097656 28.253906 30 28 30 Z M 36 30C35.746094 30 35.488281 30.097656 35.292969 30.292969L31.292969 34.292969C31.105469 34.480469 31 34.734375 31 35L31 41C31 41.554688 31.449219 42 32 42C32.550781 42 33 41.554688 33 41L33 35.414063L36.707031 31.707031C37.097656 31.316406 37.097656 30.683594 36.707031 30.292969C36.511719 30.097656 36.253906 30 36 30 Z M 28 46L36 46C36.550781 46 37 46.449219 37 47L37 48L27 48L27 47C27 46.449219 27.449219 46 28 46 Z M 9 50L55 50C55.550781 50 56 50.449219 56 51L56 58L8 58L8 51C8 50.449219 8.449219 50 9 50 Z M 12 52C11.449219 52 11 52.445313 11 53L11 55C11 55.554688 11.449219 56 12 56C12.550781 56 13 55.554688 13 55L13 53C13 52.445313 12.550781 52 12 52 Z M 17 52C16.449219 52 16 52.445313 16 53L16 55C16 55.554688 16.449219 56 17 56C17.550781 56 18 55.554688 18 55L18 53C18 52.445313 17.550781 52 17 52 Z M 22 52C21.449219 52 21 52.445313 21 53L21 55C21 55.554688 21.449219 56 22 56C22.550781 56 23 55.554688 23 55L23 53C23 52.445313 22.550781 52 22 52 Z M 27 52C26.449219 52 26 52.445313 26 53L26 55C26 55.554688 26.449219 56 27 56C27.550781 56 28 55.554688 28 55L28 53C28 52.445313 27.550781 52 27 52 Z M 32 52C31.449219 52 31 52.445313 31 53L31 55C31 55.554688 31.449219 56 32 56C32.550781 56 33 55.554688 33 55L33 53C33 52.445313 32.550781 52 32 52 Z M 37 52C36.449219 52 36 52.445313 36 53L36 55C36 55.554688 36.449219 56 37 56C37.550781 56 38 55.554688 38 55L38 53C38 52.445313 37.550781 52 37 52 Z M 42 52C41.449219 52 41 52.445313 41 53L41 55C41 55.554688 41.449219 56 42 56C42.550781 56 43 55.554688 43 55L43 53C43 52.445313 42.550781 52 42 52 Z M 47 52C46.449219 52 46 52.445313 46 53L46 55C46 55.554688 46.449219 56 47 56C47.550781 56 48 55.554688 48 55L48 53C48 52.445313 47.550781 52 47 52 Z M 52 52C51.449219 52 51 52.445313 51 53L51 55C51 55.554688 51.449219 56 52 56C52.550781 56 53 55.554688 53 55L53 53C53 52.445313 52.550781 52 52 52Z" fill="#F07D29" />
</svg>