<svg xmlns="http://www.w3.org/2000/svg" viewBox="0 0 192.76 192.76"><defs><style>.cls-1{fill:#fff;}.cls-1,.cls-2,.cls-3{fill-rule:evenodd;}.cls-2{fill:#ed1c24;}.cls-3{fill:#231f20;}</style></defs><g id="Layer_2" data-name="Layer 2"><g id="Layer_1-2" data-name="Layer 1"><g id="Layer_2-2" data-name="Layer 2"><g id="Layer_1-2-2" data-name="Layer 1-2"><polygon class="cls-1" points="0 0 192.76 0 192.76 192.76 0 192.76 0 0 0 0"/><path class="cls-2" d="M93.46,54.88c.12.12,28.18,64.11,28.15,64.05H103.22c0-.19-8.7-20.86-8.61-21H74.79C75,98,93.74,54.66,93.46,54.88Z"/><path class="cls-2" d="M33.71,15.58H76.8c.12,0-42.8,103.35-42.95,103.21S33.75,15.51,33.71,15.58Z"/><path class="cls-2" d="M109.6,15.58h44.55V118.84c0,.34-44.52-103.26-44.52-103.26Z"/><path class="cls-3" d="M51.21,135.1l9.57,41h-7l-1.64-7.66H43.5l-1.59,7.66h-7l9.57-41Zm-.37,26.33-3-15.33-3,15.33Z"/><path class="cls-3" d="M76.46,176.06l-.18-3.57h-.23c-1,2.81-3,4.68-5.6,4.68-6.16,0-8.75-7.19-8.75-16.09,0-7.61,1.91-15.86,8.84-15.86,2.41,0,3.55.88,5.29,3.16V135.1H82v41Zm-4.37-24.81c-1.69,0-4,1.64-4,9.95,0,3.86.5,10.06,4,10.06s4-5.56,4-10.06C76.09,152.89,73.72,151.25,72.09,151.25Z"/><path class="cls-3" d="M86.31,161.14c0-9.19,3.2-15.92,10.44-15.92s10.44,6.73,10.44,15.92-3.28,16-10.44,16S86.31,170.41,86.31,161.14Zm14.5,0c0-8.08-1.69-9.95-4.06-9.95-1.87,0-4,1.41-4,9.95,0,8.72,2.18,10.07,4,10.07,2.65,0,4.06-2.46,4.06-10.07Z"/><path class="cls-3" d="M116.94,176.06h-5.51v-41h6.2v13.63a5.51,5.51,0,0,1,5.24-3.51c6.52,0,8.89,6.85,8.89,15.86s-2.33,16.09-8.85,16.09c-2.69,0-4.28-1.34-5.6-4.68h-.18l-.19,3.57Zm4.42-4.85c3.38,0,4-5.56,4-10.07,0-8.31-2.37-9.95-4-9.95s-4,1.64-4,9.95C117.36,165,117.86,171.21,121.36,171.21Z"/><path class="cls-3" d="M155.1,167.46c-1.55,9-6.56,9.71-9.94,9.71-3.78,0-10.25-1.4-10.25-16,0-10.18,4.19-15.92,10.71-15.92,4.1,0,9.89,2.29,9.89,16.51v1.63H141.29c0,7,2.41,7.85,4.15,7.85,1.41,0,2.87-.41,3.46-3.75Zm-6-9.07c-.18-6-1.64-7.2-3.69-7.2-3.51,0-4.11,5-4.15,7.2Z"/><path class="cls-3" d="M157.29,18V15.58H167.8V18h-3.89V28.21h-2.73V18Zm13.89.47v9.75h-2.73V15.58h3.61l3.56,9.94,3.53-9.94h3.56V28.21H180V18.46l-3.45,9.75h-2l-3.42-9.75Z"/></g></g></g></g></svg>