<svg xmlns="http://www.w3.org/2000/svg" viewBox="0 0 600 185.8"><defs><style>.cls-1{fill:#134094;}.cls-2{fill:#5b6062;}</style></defs><g id="Layer_2" data-name="Layer 2"><g id="layer"><path class="cls-1" d="M71.9,52.7C81.1,49.8,85.7,40.2,85.7,31,85.7,6.7,64.9,1.8,44.5,1.8H0V107.1H52.1c18.4,0,38.5-7.4,38.5-29.1,0-12.6-7.2-21.3-18.7-25.3M35.5,27.2h2.7c5.6,0,12.7-.6,12.7,7.3,0,7.3-6.3,7.8-11.9,7.8H35.5Zm4.3,54.7H35.5V64.4h3.8c6.1,0,15.9-.1,15.9,8.7,0,8.6-9.1,8.8-15.4,8.8"/><polygon class="cls-1" points="132.6 1.7 94.4 1.7 94.4 107 164.8 107 164.8 73.2 132.6 73.2 132.6 1.7"/><path class="cls-1" d="M356.5,33.3c0,8.9,1.7,18,3.2,26.8h-1.1L324.3,1.7H287.6V107h36.6V72.8c0-7-1.1-13.8-2.4-21.1h1.1L356.5,107h36.6V1.7H356.5Z"/><path class="cls-1" d="M457.3,33.8c8.7,0,16.3,4.9,22.5,10.6L478.7,4.3A79.65,79.65,0,0,0,453,0c-30.9,0-55,24.6-55,55.3,0,30,23.5,53.3,53.5,53.3,6.8,0,21.1-1.3,27.2-4.2L479.8,65c-6.1,6-13.1,9.8-21.9,9.8-11.5,0-21.4-8.9-21.4-20.5a20.59,20.59,0,0,1,20.8-20.5"/><path class="cls-1" d="M541.8.1c-32,0-58.2,21.5-58.2,54.6,0,33.8,26.1,54,58.2,54S600,88.5,600,54.7C600,21.6,573.8.1,541.8.1m0,75.4c-11.6,0-19.7-8.2-19.7-20.2,0-11.2,7.5-20.5,19.7-20.5s19.7,9.3,19.7,20.5c0,11.9-8.1,20.2-19.7,20.2"/><path class="cls-1" d="M204.3,1.7,167.7,107h40.5l3.1-13.1h28.9l3.5,13.1h40.5L246.6,1.7Zm13.8,67.2s7.8-27.7,7.8-32.1c0,4.7,7.6,32.1,7.6,32.1Z"/><path class="cls-2" d="M14.8,145.9H0v39.3H5.3V171.7h8.8c7.7,0,15.5-4,15.5-13.1.1-7.8-5.8-12.7-14.8-12.7m-.5,20.8H5.4V150.9h9.2c6.2,0,9.8,2.8,9.8,7.9-.1,4.8-4,7.9-10.1,7.9"/><path class="cls-2" d="M81.3,157.7a11,11,0,0,0-3.1-7.9c-2.6-2.6-6.5-4-11.2-4H50v39.3h5.3V170.2H65.5l11.1,14.9h6.6L71.3,169.3c6.2-1.4,10-5.6,10-11.6m-26,7.7V150.9H66.6c5.9,0,9.3,2.6,9.3,7.1s-3.7,7.4-9.3,7.4Z"/><path class="cls-2" d="M120.3,145.2a20,20,0,0,0-20.1,20.4c0,11.5,8.6,20.2,20,20.2a20,20,0,0,0,20.1-20.1v-.5c-.1-11.4-8.6-20-20-20m0,35.6c-8.3,0-14.6-6.6-14.6-15.4,0-8.6,6.2-15.2,14.5-15.2s14.6,6.6,14.6,15.4c0,8.6-6.2,15.2-14.5,15.2"/><polygon class="cls-2" points="162 185.1 167.3 185.1 167.3 168.4 188.1 168.4 188.1 163.5 167.3 163.5 167.3 150.9 190.5 150.9 190.5 145.9 162 145.9 162 185.1"/><polygon class="cls-2" points="218.2 167.8 239 167.8 239 162.8 218.2 162.8 218.2 150.8 241.5 150.8 241.5 145.9 212.8 145.9 212.8 185.1 241.8 185.1 241.8 180.2 218.2 180.2 218.2 167.8"/><path class="cls-2" d="M280.2,162.9c-8.4-1.8-10-3.8-10-7s3.1-5.7,7.6-5.7a16.58,16.58,0,0,1,10.7,4l.4.3,3.1-4.1-.4-.3a20.24,20.24,0,0,0-13.8-4.8c-7.6,0-13.1,4.6-13.1,11.1,0,7.2,5.3,9.8,13.2,11.5,8.1,1.7,9.5,3.6,9.5,6.9,0,3.5-3.3,6-8,6-4.9,0-8.6-1.5-12.8-5.3l-.4-.4-3.3,3.9.4.3a22.58,22.58,0,0,0,16,6.2c8,0,13.6-4.7,13.6-11.4.1-5.8-3.7-9.2-12.7-11.2"/><path class="cls-2" d="M331,162.9c-8.4-1.8-10-3.8-10-7s3.1-5.7,7.6-5.7a16.58,16.58,0,0,1,10.7,4l.4.3,3.1-4.1-.4-.3a20.24,20.24,0,0,0-13.8-4.8c-7.6,0-13.1,4.6-13.1,11.1,0,7.2,5.3,9.8,13.2,11.5,8.1,1.7,9.5,3.6,9.5,6.9,0,3.5-3.3,6-8,6-4.9,0-8.6-1.5-12.8-5.3l-.4-.4-3.3,3.9.4.3a22.58,22.58,0,0,0,16,6.2c8,0,13.6-4.7,13.6-11.4.1-5.8-3.7-9.2-12.7-11.2"/><rect class="cls-2" x="367" y="145.9" width="5.3" height="39.3"/><path class="cls-2" d="M413.9,145.2a20,20,0,0,0-20.1,20.4c0,11.5,8.6,20.2,20,20.2a20,20,0,0,0,20.1-20.1v-.5c-.2-11.4-8.7-20-20-20m0,35.6c-8.3,0-14.6-6.6-14.6-15.4,0-8.6,6.2-15.2,14.5-15.2s14.6,6.6,14.6,15.4c-.1,8.6-6.3,15.2-14.5,15.2"/><polygon class="cls-2" points="482.9 175.5 459.6 145.9 454.8 145.9 454.8 185.1 460 185.1 460 154.7 483.8 184.9 483.9 185.1 488.1 185.1 488.1 145.9 482.9 145.9 482.9 175.5"/><path class="cls-2" d="M529.4,145.6h-4.7l-17.9,39.5h5.5l4.5-10.1H537l4.5,10.1h5.8l-17.8-39.2Zm-10.3,24.5,8-17.7,7.9,17.7Z"/><polygon class="cls-2" points="572 180.1 572 145.9 566.7 145.9 566.7 185.1 593.5 185.1 593.5 180.1 572 180.1"/></g></g></svg>