<svg xmlns="http://www.w3.org/2000/svg" viewBox="0 0 132 138.6"><defs><style>.cls-1{fill:#fefdfd;}.cls-2{fill:#9f271f;}.cls-3{fill:#9f2820;}</style></defs><g id="Layer_2" data-name="Layer 2"><g id="Layer_1-2" data-name="Layer 1"><path class="cls-1" d="M0,138.6V0H132V138.6ZM47.23,28.84l-.81-.7c-4,3.06-8.52,5.66-12,9.25C20.78,51.56,17.18,68.2,24.23,86.59c4.89,12.79,13.8,21.77,27.66,24.74,9.21,2,16.76-2.22,19.91-11,3.25-9.1.68-17-5.65-23.87-4.64-5-9.59-9.86-13.94-15.15C44.58,52,41.57,41.77,47.08,30.22A4.13,4.13,0,0,0,47.23,28.84Zm33.28,83.27c.49-.21,1-.4,1.51-.64,15.72-7.68,29-27.37,27-47.12S91.55,30.44,77.61,25.69c-5.39-1.84-10.37-.92-14,3.64-3.81,4.72-6.07,10.14-2.77,16a77.8,77.8,0,0,0,8.48,11.8C74,62.71,79.52,67.72,84,73.51c5.84,7.5,7.11,16.12,3.36,25C85.44,103.15,82.87,107.49,80.51,112.11Z"/><path class="cls-2" d="M47.23,28.84a4.13,4.13,0,0,1-.15,1.38c-5.51,11.55-2.5,21.8,5.13,31.07,4.35,5.29,9.3,10.1,13.94,15.15,6.33,6.9,8.9,14.77,5.65,23.87-3.15,8.8-10.7,13-19.91,11-13.86-3-22.77-12-27.66-24.74-7-18.39-3.45-35,10.21-49.2,3.46-3.59,8-6.19,12-9.25Z"/><path class="cls-3" d="M80.51,112.11c2.36-4.62,4.93-9,6.87-13.57,3.75-8.91,2.48-17.53-3.36-25-4.5-5.79-10-10.8-14.74-16.41A77.8,77.8,0,0,1,60.8,45.3c-3.3-5.83-1-11.25,2.77-16,3.67-4.56,8.65-5.48,14-3.64C91.55,30.44,107,44.71,109,64.35s-11.24,39.44-27,47.12C81.52,111.71,81,111.9,80.51,112.11Z"/></g></g></svg>