<svg xmlns="http://www.w3.org/2000/svg" viewBox="0 0 957.66 136.88"><defs><style>.cls-1{fill:#fff;}.cls-1,.cls-2,.cls-4{fill-rule:evenodd;}.cls-2{fill:#1c9ecd;}.cls-3,.cls-5,.cls-6{fill:none;stroke-miterlimit:2.41;}.cls-3{stroke:#fff;stroke-width:0.42px;}.cls-4{fill:#98272b;}.cls-5,.cls-6{stroke:#9a292d;}.cls-5{stroke-width:0.21px;}.cls-6{stroke-width:0.63px;}</style></defs><g id="Layer_2" data-name="Layer 2"><g id="Layer_1-2" data-name="Layer 1"><g id="Layer_2-2" data-name="Layer 2"><g id="Layer_1-2-2" data-name="Layer 1-2"><path class="cls-1" d="M872.58,0c47,0,85,30.64,85,68.44s-38.07,68.43-85,68.43-85-30.63-85-68.43S825.63,0,872.58,0"/><path class="cls-2" d="M865.76,136.87c-25.14-1.47-47.42-12.05-61.67-27.56h27.56q13.08,13.78,34.11,27.56"/><path class="cls-2" d="M874.49,109.31h34.45q-13.1,13.64-34.45,27.23Z"/><path class="cls-2" d="M870.92,136.54c-14.11-9.07-25.6-18.15-34.34-27.23h34.34Z"/><path class="cls-2" d="M940.85,109.31c-14.23,15.51-36.4,26-61.42,27.57,14-9.2,25.48-18.37,34.1-27.57Z"/><path class="cls-2" d="M787.55,66.72c.36-13.11,5.42-25.27,13.69-35.6h26.28C817.3,42.94,812.24,54.79,812,66.72Z"/><path class="cls-2" d="M828.78,105.75H801.24C793,95.42,787.91,83.36,787.55,70.27h24.59q1.18,17.74,16.64,35.48"/><path class="cls-2" d="M957.62,70.28c-.35,13.08-5.39,25.15-13.65,35.47H916.74C927,93.93,932.6,82.09,933.27,70.28Z"/><path class="cls-2" d="M944,31.12c8.27,10.33,13.31,22.49,13.66,35.62H933.39c-.23-12-5.27-23.8-15.38-35.62Z"/><path class="cls-2" d="M879.55,0c25,1.63,47.07,12.07,61.3,27.57H914.79Q901.71,13.77,879.55,0"/><path class="cls-2" d="M830.74,27.56H804.31C818.67,12.06,840.83,1.5,866,0q-22.39,13.77-35.26,27.56"/><path class="cls-2" d="M870.92,27.56H835.57c8.71-9,20.43-18.14,35.35-27.22Z"/><path class="cls-2" d="M874.49.34Q896.89,14,910,27.56H874.49Z"/><path class="cls-1" d="M898.37,92.21l.34.55.12.94v1c-.06,2.63-1.35,3.71-3.78,4.37h-.92L894,99l-.24-.12-.22-.22-.12-.24v-.23l-.12-.33V97.5l.12-.22V97l.23-.24.11-.22.47-.57.34-.13.47-.1.45-.35.57-.35.11-.1.11-.25.13-.32.11-.36-.11-.34-.13-.59-.22-.44-.35-.69-1-1.6c-1.56-3.45.74-3.45-.44-6.45l-.37-.9-.69-1L892,80.16l-1-1.5-.33-.69-.34-.56c-1-2.74.15-5.65.56-8.39V66.61l-.12-1v-.23l.12-.35.11-.11.12-.11h.11l.12.11.11.11.12.11.23.81v.58l.24.81v1.15l-.13,1.36c-.78,4-.84,6.62,2.31,9.43l.55.45.48.36c2.51,2.72,1.63,4.11,1.6,7.22v.92l.35,1,.23.92.46,1Z"/><path class="cls-1" d="M895.5,72.92v.68l.12.6c.4,4,4.52,5.56,6.87,8.23l.47.82.24.92c.72,2.12.13,6.85-2.87,6.65l-.25-.11-.1-.09.1-.13.14-.11c2.35-2.35,1.42-5.82-.24-8.28l-.69-.8-.8-.8-.93-.68a7.09,7.09,0,0,1-1.84-2.88l-.22-.69-.22-.57a12.79,12.79,0,0,1-.23-4l.11-.23.12-.1h.1l.12.22v.23l.12.46Z"/><path class="cls-1" d="M887.13,80.38l-.24.47v.58c-1,3.62,2.26,6.09,3.57,9.06l.11.79v.8c-.16,2-1.78,5.92-4.48,5L886,97l-.12-.13.12-.1v-.12h.23l.33-.23c2.67-1.59,2.5-5.15,1.38-7.68l-.45-.91L887,86.69l-.34-.45-.24-.58-.12-.57-.1-.68V82l.22-1,.24-.91.22-.68L887,79l.22-.11h.24v.47l-.11.46Z"/><path class="cls-3" d="M887.13,80.38l-.24.47v.58c-1,3.62,2.26,6.09,3.57,9.06l.11.79v.8c-.16,2-1.78,5.92-4.48,5L886,97l-.12-.13.12-.1v-.12h.23l.33-.23c2.67-1.59,2.5-5.15,1.38-7.68l-.45-.91L887,86.69l-.34-.45-.24-.58-.12-.57-.1-.68V82l.22-1,.24-.91.22-.68L887,79l.22-.11h.24v.47l-.11.46Z"/><path class="cls-4" d="M901.93,77.41l-1.37-2.07-.58-.82-.22-.57c-.14-2.29.25-1.37.46-2.75V71l-.22-.5c-.75-1.39-3.19-3-4-4.47l-.46-1-.38-1-.24-.57v-.57l-.11-.57v-.57l.11-.59.13-.46.23-.58.22-.34.46-.32.46-.35.34-.26h.35l.56-.21.24-.12h.24l.22-.23.23-.21.23-.46.36-.83.1-.21.12-.25h.23l.22-.12.94.12v-.21l-.14-.36c-2.11-3.75-3.79-8-3.44-12.39v-.92l.23-1.05.22-1,.36-.91.34-1,.58-.92.56-.92.71-1,.58-.91.44-.8.12-.35.11-.34v-.34l-.11-.23-.12-.13L901,32.4h-.12l-.24.12h-.33l-.82.45-.68.47-.57.47-.59.57L897,35l-.46.56-.45.57-.47.58-.33.69-.82,1.24c-1.34,3.44-2.25,7.26-1.61,10.92V50h-.1l-.12-.11-.92-.8-1-.69c-6.49-3.67-15.48-.79-14.21,7.79l.09.37.36.79.34.71.22.44v.22l-.11.24-.24.48-.33.2-.46.36-.47.22-.45.23-.8.23-.24.13h-.11l-.11.1H874l-.79.23-1,.23-.92.12h-1l-1,.12-1.16-.12L867,61.37l-1.16-.11-2.41-.35-2.52-.46-5-1.26-2.53-.47-2.52-.56-2.54-.34L847,57.7c-11-1.77-16.65,5.44-15.62,15.83l.79,5.31.7,4.34.23,2c.8,4.49-.89,8.49-.93,13v1.75l.12,1.46c.13,1.32.75,3.57,2.18,1.73l.23-.44.12-.6.23-.69.23-1.6.11-1.37v-.69l.25-2.42c1.38-10-7.72-26.76,1.83-32.71l.79-.48,1.16-.32,1.37-.24a12.89,12.89,0,0,1,9,1.82l1.14.7,1.28.8c4.43,3.11,10.22,3.67,15.49,3.8h1.83l1.73-.11,1.61-.12,1.38-.11,1.26-.24,1.14-.22c1.42-.58,3.77-1.31,5.29-.7l.68.46.7.46.57.58.46.57.46.8.23.68.33.69.24.69.23.72.12.67v.92l-.12.68-.12.7-.35,1.25-.2.12-.25.22c-1.5,1.11-2.56,4.34-2.64,6.21L882,84.87v.56l-.22.46-.13.46-.22.34-.24.37-.34.09-.35.23-.22.25-.68.23h-.7l-.57.11h-.58l-.58-.11h-.66l-1.17-.35-.92-.36-.22-.09.11,1.59.35,1.28.24.68.33.45.23.47.23.22.11.22.11.24.13.8.23,1.26c.46,2.32.14,5.16.24,7.58l-.13,1-.11.57.24.13.66.34.24.21.34.24.12.35.12.23V105l.22.21H884V105l-.12-.35-.12-.36-.23-.2-.33-.59-.46-.46-.92-.69-.35-.22-.12-.24-.12-.11-.1-.24-.12-.23v-.46l.22-.55.7.09h.57l1.16.13h2l.12,1.48-.12,1v.69l.24.1c.51.41,1.27.74,1.27,1.5l.1.23H893v-.44l-.12-.47-.22-.36-.35-.32-.57-.7-.58-.46-.23-.21-.23-.36-.33-.35-.11-.35v-.78l.23-.7,1,.79.68.36.24.1c2.28.54,2.82.62,4.94,0l.92-.46.93-.55c1.89-1.24,1.94-3.07,2.74-5.07l.23-.34.11-.23.23-.23c5.25-2.11,6.46-8.06,3-12.5l-.57-.83-1-1.37Z"/><path class="cls-4" d="M900.8,64.53l.32.36.25.33.1.36V67.4l.22-.35.24-.44.34-.47.23-.56.11-.69v-.24l-.11-.34v-.22l-.11-.25-.23-.22c-.48-.16-2.21-1.33-2.75-.58v.46l-.12.47Z"/><path class="cls-5" d="M900.8,64.53l.32.36.25.33.1.36V67.4l.22-.35.24-.44.34-.47.23-.56.11-.69v-.24l-.11-.34v-.22l-.11-.25-.23-.22c-.48-.16-2.21-1.33-2.75-.58v.46l-.12.47Z"/><path class="cls-1" d="M898.6,92.67l.23.34.12.58.11.45.13.46v.57l-.13.47L899,96l-.12.57-.23.58-.35.69-.45.56-.58.58c-1.29.39-.81.88-2.53.82l-.34-.14-.34-.22-.23-.23-.22-.35-.13-.46.13-.34.11-.36.11-.32L894,97l.34-.34.46-.23.81-.46.34-.13.22-.33.24-.23.11-.34.13-.25V94l-.13-.34-.24-.69-.33-.7L895.27,91l-.36-.46a4.53,4.53,0,0,1-.46-3.47l.23-.67.12-.35a6,6,0,0,0-1-3.56l-.57-.68-.92-1.28-.93-1.48c-3.19-4.12.21-8.73-.46-14.24l.12-.11.11-.12.12-.12.23.24.11.22c1.89,4.35-2.07,9.06,1.5,13.09l.34.36.7.68c5.1,4.08,1.89,6.44,3.09,10.22l.34,1.15.47,1Z"/><path class="cls-1" d="M896.42,72.92v1.15l.11.57c1.61,5.25,5.13,4.88,6.78,7.79l.45.82.36.92c.57,2.11.24,6.38-2.65,6.65h-.22l-.23-.11-.12-.09v-.13c2.06-1.57,1.9-4.37,1-6.55l-.45-.91-.67-.93c-3.29-3.9-4.67-3.3-4.95-9.4V71.54l.11-.22h.22l.11.1.13.23v1.27Z"/><path class="cls-4" d="M915.14,36.75l-.23-.46-.35-.68-.23-.13-.11-.22h-.35l-.11.1v.12l-.11.46.11.58v.69L914,38.7l.24,1.38.11,1.25v2.19l-.11,1-.24.91-.11.92-.11.68a12.51,12.51,0,0,1-6.42,7.23l-1.4.59-1.49.46L906,56.57l1.28,1c2.07,2.26,4.31,6,1.72,8.73l-.81,1.16-.34.68-.35.7-.22.79-.24.8-.33,1.73-.25,1.6-.21.81-.11.34-.14.24-.11.11-.11.11-.34.13h-.24l-.35-.13h-.11l-.23.13v.11c.08.66.44,2.31,1.27,2.3h.11v-.13H906l.25-.32.09-.59.37-1,.22-1,.35-2.08.22-1.94V70.6l.35-.66.46-.58.46-.58.46-.46,1-.92.68-.79.58-.7.57-.81.24-.46.22-.45.13-.47V63.4l-.13-.45-.11-.6L912,60.86l-.8-2.42.92-1.13.12-.23c1.72-2.29,3.39-4.32,4.24-7.13l.34-.92.24-1a14.19,14.19,0,0,0-.24-7l-.34-.91-.57-1.62Z"/><path class="cls-6" d="M915.14,36.75l-.23-.46-.35-.68-.23-.13-.11-.22h-.35l-.11.1v.12l-.11.46.11.58v.69L914,38.7l.24,1.38.11,1.25v2.19l-.11,1-.24.91-.11.92-.11.68a12.51,12.51,0,0,1-6.42,7.23l-1.4.59-1.49.46L906,56.57l1.28,1c2.07,2.26,4.31,6,1.72,8.73l-.81,1.16-.34.68-.35.7-.22.79-.24.8-.33,1.73-.25,1.6-.21.81-.11.34-.14.24-.11.11-.11.11-.34.13h-.24l-.35-.13h-.11l-.23.13v.11c.08.66.44,2.31,1.27,2.3h.11v-.13H906l.25-.32.09-.59.37-1,.22-1,.35-2.08.22-1.94V70.6l.35-.66.46-.58.46-.58.46-.46,1-.92.68-.79.58-.7.57-.81.24-.46.22-.45.13-.47V63.4l-.13-.45-.11-.6L912,60.86l-.8-2.42.92-1.13.12-.23c2.19-2.87,3.46-4.51,4.58-8l.24-1,.11-.91a13.07,13.07,0,0,0-.69-7l-.57-1.62Z"/><path class="cls-1" d="M887.82,80.27l-.24.79-.11.82v.81c.09,3.74,2.91,5.17,3.78,8.37v.79c0,2-1.16,5-3.43,5.4h-.69l-.24-.1-.22-.23v-.13l.11-.11.11-.1.47-.24.33-.22.23-.25.35-.32.23-.25.23-.33.34-.7.23-.81.12-.69V91.06c-.94-3.5-3.82-6.71-2.19-10.56l.35-1.15.24-.35v-.11l.22-.11h.11l.12.22-.12.13v.34l-.23.58Z"/><path class="cls-3" d="M887.82,80.27l-.24.79-.11.82v.81c.09,3.74,2.91,5.17,3.78,8.37v.79c0,2-1.16,5-3.43,5.4h-.69l-.24-.1-.22-.23v-.13l.11-.11.11-.1.47-.24.33-.22.23-.25.35-.32.23-.25.23-.33.34-.7.23-.81.12-.69V91.06c-.94-3.5-3.82-6.71-2.19-10.56l.35-1.15.24-.35v-.11l.22-.11h.11l.12.22-.12.13v.34l-.23.58Z"/><path class="cls-4" d="M854.74,101.51l-.46-.58-.35-.44-.22-.58a4.7,4.7,0,0,1,.1-3.8l.24-.57.23-.34.35-.35.34-.36.34-.21.35-.24.57-.34.12-.11.23-.13.12-.35.11-.34v-.32l-.23-.48-.35-.44c-1.14-.58-.84-.69-2.42-.13l-.68.57-.81.8c-4.26,5.58-2.74,3.36-2.74,9.09v.57l-.12.57v.11l.23.13.69.34.35.22.23.24.23.22v.36l.11.21.11.12h6l-.12-.21a4,4,0,0,0-1.49-2.42l-.47-.36Z"/><path class="cls-4" d="M865.18,88l-.22.23-.58.45a2.81,2.81,0,0,1-2,.81l-.68-.12-.58-.34a21.25,21.25,0,0,0-4-1.14l-1.27-.58-2-.7.46-1.6.35-1.15.34-1.14c1.13-4-3.34-7.37-6.3-9.09l-.47-.22-.46-.12c-3.28-1.1-3.35,3.19-2.41,5.18l.45,1.38.35,1.24.23,1.16.11,1.14a10.36,10.36,0,0,1-4,8.49l-.34.13-.7.1-.69.13c-1,.3-.7-.24-1.72.7l-.23.33-.11.35a33.4,33.4,0,0,0,0,6l.11,2v1.5l-.11.68.34.12c2.77,1.39.12,1.91,3.45,1.73l4.14-.13-.12-.45-.11-.33-.23-.48-.35-.34-.56-.68-.59-.69-.91-.8-.46-.48-.12-.33-.22-.46-.13-.46V99l.23-.22.12-.47.12-.45.69-1.15.22-.45.36-.47.24-.23.22-.23,1.48-.34,1.15-.57,1.16-.58.91-.47.8-.68.69-.59L852.38,91l.46-.91.46-.69.23-.34.22-.23.35-.23.47-.13H855l1.38.59,2.19.91,1.15.47.56.24.46.2.46.37.46.21h.47l.33.13h.35l.23-.13.22-.12.24-.21.34-.45.7-.71.67-.91.69-1Z"/><path class="cls-4" d="M96.16,89.27l-4.61,22.6H71.85c1.58-7.47,3.16-15.64,4.73-23.24.39-1.71.79-3.43,1.18-5.28,0-1.29.27-2.62.4-3.93.77-9-5.91-10.89-12.21-8-3.69,1.55-5.39,4-7.22,7.46a27,27,0,0,0-3,9.46l-4.85,23.38H31.39L42.69,56c6.05-.14,12-.39,18-.53-.81,3.55-1.58,7-2.26,10.38C65.66,57.2,75.12,52.75,85.9,55.75,96.8,58.92,99,69.68,97.45,80.21a68.22,68.22,0,0,1-1.3,9"/><path class="cls-4" d="M451.21,30.69l-7.74,35.48a19.4,19.4,0,0,0-12.76-10.25,20.21,20.21,0,0,0-3-.4,30.42,30.42,0,0,0-15.77,2.89c-13.8,7.08-20,27.19-14.45,41.37,2.37,5.92,5.64,10.26,11.95,12.5,5.52,2,8.54,1.69,13.79.39a26.18,26.18,0,0,0,4.48-1.58c3.81-1.84,7-4.74,10.37-8-.77,2.89-1.57,5.92-2.35,8.93h17.59l17.07-81.31ZM432,97.17A14.72,14.72,0,0,1,427.7,99a11.42,11.42,0,0,1-9.33-2.37,7.39,7.39,0,0,1-2.37-4.2c-1.06-3.8-.41-8.8.91-12.34a15.63,15.63,0,0,1,6.45-8.66,11.4,11.4,0,0,1,4.33-1.6,10.81,10.81,0,0,1,6.7.8,8.77,8.77,0,0,1,5.11,7.22l.26,3.15c0,6.32-2.22,12.62-7.74,16.17"/><path class="cls-4" d="M292.52,56.71l-4.06,12.08a70.49,70.49,0,0,0-14.84-2.62,16.28,16.28,0,0,0-4.35.25c-3.94.92-5.65,4.35-2.63,7.08,3.81,3.7,10.38,4.61,15,7.64a24.61,24.61,0,0,1,3.68,3c3.8,5.8,3.27,12-.65,17.87-6.2,9.34-18,10.26-28.64,9.48a117,117,0,0,1-16.54-2.65L243,95.33c7.09,2,11.69,3.55,18.4,2.89,3-.25,7.21,0,7.21-4.21-.66-2.89-3.54-4.75-6.57-6.17-4.46-2-9.2-3.29-12.73-6.83-2.25-3-2.62-5.38-2.62-9.05a13.65,13.65,0,0,1,2.75-8.84c9.44-13.64,29.16-9.7,43.07-6.41"/><path class="cls-4" d="M181.54,55.38l19.69-.25c-1.46,7-2.89,13.91-4.45,21.15-.93,4.72-2.78,10.64-1.46,15.35.79,2.64,1.58,3.56,4.2,4.34a9.75,9.75,0,0,0,8.54-1.3c6.69-4.87,8.55-13,10.25-20.76l4.07-18.78h19.31l-11.95,56.74c-5.64.14-11.29-.26-17.07-.13.65-3.16,1.43-7.75,2.08-10.92-1.95,1.88-3.8,3.82-5.91,5.53a24.34,24.34,0,0,1-9.84,4.74c-4.08.92-9.73.92-13.54-.65-4.32-1.72-7.49-5.66-9.19-10-2.24-5.91-1.3-9.72-.38-15.77,1.43-9.73,3.54-19.56,5.65-29.29"/><path class="cls-4" d="M159.32,30.69l-7.87,35.48A19.3,19.3,0,0,0,138.7,55.92a20.21,20.21,0,0,0-3-.4,30.37,30.37,0,0,0-15.78,2.89c-13.79,7.08-20,27.19-14.44,41.37,2.35,5.92,5.77,10.26,12,12.5,5.51,2,8.53,1.69,13.8.39a26.38,26.38,0,0,0,4.47-1.58c3.81-1.84,7-4.74,10.36-8-.78,2.89-1.59,5.92-2.37,8.93H161.3l17.22-81.31ZM140,97.17A13.21,13.21,0,0,1,135.7,99a11.4,11.4,0,0,1-9.34-2.37,7.46,7.46,0,0,1-2.36-4.2,22.32,22.32,0,0,1,.93-12.34,16.26,16.26,0,0,1,6.44-8.66,11.44,11.44,0,0,1,4.34-1.6,10.85,10.85,0,0,1,6.69.8,9.17,9.17,0,0,1,5.25,7.22L147.8,81c0,6.32-2.25,12.62-7.78,16.17"/><polygon class="cls-4" points="16.94 30.69 36.91 30.69 20.22 111.75 0 111.75 16.94 30.69"/><path class="cls-4" d="M388.28,89.27l-4.6,22.6H363.85c1.57-7.47,3.27-15.64,4.87-23.24.37-1.71.79-3.43,1.17-5.13a39.73,39.73,0,0,1,.27-4.08c.92-9-5.92-10.89-12.23-8-3.54,1.69-5.23,4-7.08,7.46-1.84,3-2.36,5.92-3,9.46l-5,23.38h-19.2L334.83,56c5.91-.14,11.95-.28,18-.53-.79,3.55-1.58,7-2.37,10.38,7.36-8.68,16.82-13.13,27.59-10.13,10.89,3.17,13.13,13.93,11.56,24.59-.27,3-.79,5.88-1.32,8.91"/><polygon class="cls-4" points="307.89 30.69 328.12 30.69 311.31 111.75 291.1 111.75 307.89 30.69"/><path class="cls-4" d="M679.73,89.48l-4.59,22.37H655.6c1.45-7.54,3.26-15.54,4.71-23,.32-1.8.82-3.43,1.15-5.24a30.17,30.17,0,0,1,.32-3.91c.82-9-5.87-10.76-12.06-8-3.59,1.63-5.22,4.09-7.18,7.51a28.2,28.2,0,0,0-2.93,9.3l-4.9,23.15H615.62l11.11-55.12L644.5,56c-.66,3.42-1.46,6.84-2.12,10.28,7-8.66,16.48-13.06,27.07-10.11C680.38,59.3,682.52,70.06,681,80.48c-.32,3.11-.81,5.89-1.31,9"/><polygon class="cls-4" points="701.75 31.4 721.17 31.4 711.22 79.05 730.63 56.21 752.33 56.21 729.49 81.33 743.85 111.51 723.28 111.51 710.57 82.3 704.53 111.51 685.63 111.51 701.75 31.4"/><path class="cls-4" d="M612,67.6c-4.56-10.92-17.13-12.87-29.2-11.39A91.86,91.86,0,0,0,568.47,59l-2.11,12.88a35.73,35.73,0,0,1,8.81-3.4,45.9,45.9,0,0,1,7.66-1,40.15,40.15,0,0,1,6,.51c4.91,1.15,6.7,4.73,6.7,9.46-4.42,0-8.83-.16-12.74.16-6.84.34-13.52,1.3-20.39,4.74-4.73,3.26-6.52,5.55-7.48,9.61s-1.49,8.17.65,11.92c3.24,6.54,10.75,9.79,17.93,9.14a28,28,0,0,0,9.29-2.78,37.9,37.9,0,0,0,8.82-6.71l-1,8.35h16l.67-6.22c1.47-7.65,3.25-15.49,4.89-23.31.64-5.71,2-9.31-.17-14.71M588.38,97.3a17.08,17.08,0,0,1-4.56,3c-.33.17-.66.17-1,.32-2.61,1-6,1.14-8.31-.48-4.1-3.11-2.62-8.33,1-10.92a13.43,13.43,0,0,1,7.34-2.29c2.61-.17,5.39,0,7.84,0h2.77c-1.13,3.41-2.45,7.65-5.06,10.42"/><path class="cls-4" d="M553,49.51c-2.6-10.27-16.3-11.58-25.11-11.58H499.32l-14.84,73.72h29.86c1.12-.14,2.26-.14,3.4-.32,13.55-1,27.73-3.25,30.68-18.43,2.11-10.77-4.41-17.62-14.34-19.24a71.17,71.17,0,0,0,11.08-3.93c5.53-3.73,8.48-9,8.48-15v-.35A16.8,16.8,0,0,0,553,49.5m-33.1,48.27a7.72,7.72,0,0,1-2.14.34c-4.06.48-8.46.48-11.72.67l3.9-18.45c2.44-.16,5.22-.5,7.82-.5a17.93,17.93,0,0,1,5.22.34c10.78,2.43,8.18,15.66-3.08,17.6m4.57-30.34a28.52,28.52,0,0,1-6.71.67C516,68.1,514,68,512.19,68l3.94-17.3h1.61c4.74-.32,11.44-.83,14.21,2.12,6.69,7-1.48,13.22-7.5,14.66"/></g></g></g></g></svg>