<svg xmlns="http://www.w3.org/2000/svg" viewBox="0 0 185.57 33.44"><defs><style>.cls-1{fill:#4f4c4d;}.cls-2{fill:#1081c5;fill-rule:evenodd;}</style></defs><g id="Layer_2" data-name="Layer 2"><g id="svg4021"><g id="layer1"><path id="path3434" class="cls-1" d="M180,10.56H176V9.21h9.54v1.35h-3.95V22.78H180ZM166.44,9.21h7.92v1.35H168.1v4.61h5v1.35h-5v4.91h6.6v1.35h-8.26Zm-16.24,0h2.3l4.19,10.57,4.06-10.57H163V22.78h-1.65V11.36l-4.5,11.42h-.51l-4.65-11.42V22.78H150.2ZM145.75,16v-.15c0-3-1.79-5.5-4.92-5.5s-5,2.31-5,5.54v.15c0,3.28,2.18,5.52,5,5.52,3,0,4.88-2.28,4.88-5.56m-11.6.06v-.15a6.65,6.65,0,1,1,13.3,0V16c0,3.83-2.63,6.91-6.58,6.91a6.62,6.62,0,0,1-6.72-6.87m-4.49-6.87h1.65V22.78h-1.65Zm-7.29,12.28c2,0,2.89-.88,2.89-2.53v-.07c0-1.67-.93-2.47-3.12-2.47h-2.77v5.07Zm-.53-6.36c2,0,2.75-.72,2.75-2.39v-.08c0-1.53-.89-2.16-2.79-2.16h-2.43v4.63Zm-4.08-5.92h4.08c2.52,0,4.36.84,4.36,3.51v.08a2.77,2.77,0,0,1-2,2.86c2,.48,2.71,1.48,2.71,3.25V19c0,2.56-1.75,3.8-4.46,3.8h-4.65ZM105,15.57c1.94,0,3-.84,3-2.51V13c0-1.84-1.14-2.45-3-2.45h-2.54v5Zm-4.19-6.36h4.08c2.6,0,4.74,1.06,4.74,3.78v.07c0,2.24-1.5,3.34-3.36,3.7l4.16,6H108.6l-4-5.9h-2.09v5.9h-1.65Zm-10.74,0H98v1.35H91.73v4.61h5v1.35h-5v4.91h6.6v1.35H90.08Zm-16.24,0h2.3l4.19,10.57L84.39,9.21h2.28V22.78H85V11.36l-4.5,11.42H80L75.36,11.36V22.78H73.84Zm-16.24,0h2.29l4.2,10.57L68.15,9.21h2.28V22.78H68.77V11.36L64.28,22.78h-.52L59.12,11.36V22.78H57.6Zm-5.16,0h1.65V22.78H52.44ZM39.88,22.51l7.68-12h-7V9.21h9.28v.25L42.36,21.37h7.37v1.41H39.88Z"/><path id="path3438" class="cls-2" d="M5.66,27.72A15.6,15.6,0,0,0,27.87,5.8L16.68,27.27a10.65,10.65,0,0,0,10.43-9.2v9.65Zm-.27-.28L16.68,6h-.11A10.69,10.69,0,0,0,5.94,15.76V5.53H27.59A15.54,15.54,0,0,0,16.72,1.12c-9.35,0-15.6,6.25-15.6,15.6A15.54,15.54,0,0,0,5.39,27.44M16.72,0A16.72,16.72,0,1,1,0,16.72C0,6.75,6.75,0,16.72,0"/></g></g></g></svg>