<svg xmlns="http://www.w3.org/2000/svg" viewBox="0 0 48.79 48.82"><defs><style>.cls-1{fill:#231f20;fill-rule:evenodd;}</style></defs><g id="Layer_2" data-name="Layer 2"><g id="Layer_1-2" data-name="Layer 1"><g id="surface1"><path class="cls-1" d="M10.3,33.8h3.48v1H10.3Zm6,1H14.69V29.84H16.4v4.77C16.4,34.72,16.37,34.75,16.26,34.75Zm-6-2.91h3.48v.91c-.27,0-.33,0-.62,0l-2.86,0Zm0-2a27.72,27.72,0,0,1,3.53,0v.95a34.65,34.65,0,0,1-3.53,0ZM32.2,18.14c-.05-.47-.06-4.67,0-5h1.64a39,39,0,0,1,0,5Zm2.6-.84c0-.1,0-.14.15-.14h3.34v1H34.8ZM23.7,18.83a2.65,2.65,0,0,0,.86,1.42l4.86,5.39A6.41,6.41,0,0,1,31.13,30,4.77,4.77,0,0,1,30,33a5.07,5.07,0,0,1-3.6,1.68,26.74,26.74,0,0,1-3.35.14c-.44,0-.74,0-1.14,0-.76,0-4.15.07-4.62,0V29.84h6.24c.78,0,1-.38,1-.9s-1-1.46-1.42-1.87c-.11-.12-.14-.19-.26-.32L21.25,25c-.59-.68-2.46-2.68-2.88-3.27a6.75,6.75,0,0,1-.76-1.43,5.49,5.49,0,0,1,.31-4.81c1.46-2.33,3.88-2.32,6.83-2.32h6.48l.05,4.91H24.84C24.25,18.12,23.7,18.25,23.7,18.83Zm11.1-3.62,3.51,0v1c-.1,0-3.21.06-3.42,0l-.08,0s0,0,0,0Zm0-1.19v-.81h3.49v.95H35C34.84,14.16,34.8,14.12,34.8,14ZM4.72,24.36a19.88,19.88,0,0,0,1.71,8l.37.82c.09.17.14.22.23.39A14.23,14.23,0,0,0,8.18,35.5a15.86,15.86,0,0,0,1.89,2.34c.13.13.16.2.29.34l.62.57a18.31,18.31,0,0,0,3.1,2.37c.15.09.22.16.38.24a17.29,17.29,0,0,0,1.59.84l.83.37a19.68,19.68,0,0,0,23.6-6.86,20.05,20.05,0,0,0,2.12-3.89,19.63,19.63,0,0,0,.89-12.14,19.44,19.44,0,0,0-5.29-9.3c-.22-.22-.4-.35-.62-.57a20,20,0,0,0-2-1.62A4,4,0,0,0,35.19,8l-.38-.25A8.69,8.69,0,0,0,34,7.25a17.48,17.48,0,0,0-1.62-.81,19.47,19.47,0,0,0-14.31-.68c-.65.22-1.16.44-1.78.69a19.86,19.86,0,0,0-2.39,1.29c-.27.18-.49.3-.75.49l-.69.5c-.23.2-.47.35-.69.56-.49.46-.62.52-1.28,1.19a16.21,16.21,0,0,0-2,2.3c-.1.12-.16.22-.26.36A19.6,19.6,0,0,0,4.72,24.36"/><path class="cls-1" d="M0,23.84a24.08,24.08,0,0,0,1.79,9.75,24.65,24.65,0,0,0,3.37,5.82,4.91,4.91,0,0,0,.61.73,2.29,2.29,0,0,0,.77-.62c-.25-.38-.57-.71-.84-1.07-.11-.14-.17-.24-.28-.39l-1-1.55A23.59,23.59,0,0,1,1.61,19.1a16.76,16.76,0,0,1,.64-2.26c.13-.34.25-.7.39-1.05l.43-1a20.25,20.25,0,0,1,2.12-3.7L6.45,9.4A22.9,22.9,0,0,1,9.74,6.16l2.55-1.78a17.28,17.28,0,0,1,2.4-1.28A23.53,23.53,0,0,1,35,3.51a22.64,22.64,0,0,1,2.68,1.61c.72.5,1.35,1,2,1.55a24.43,24.43,0,0,1,3.77,4.14l.58.85a22.36,22.36,0,0,1,1.56,2.79c.08.15.14.31.22.49s.15.33.22.5l.39,1c.27.71.45,1.41.67,2.18a21,21,0,0,1,.69,5.08,23.71,23.71,0,0,1-.55,5.79A26.62,26.62,0,0,1,46,33.3,21.58,21.58,0,0,1,44.12,37c-.1.15-.14.24-.24.39-.49.72-1.26,1.63-1.59,2.12a2.88,2.88,0,0,0,.76.67c.28-.41.64-.8.94-1.21a23.49,23.49,0,0,0,2.11-3.37c.13-.24.24-.46.36-.74l.65-1.49a24.7,24.7,0,0,0,.44-16.66c-.19-.58-.38-1.06-.6-1.6L46.45,14c-.07-.15-.1-.24-.17-.4l-.76-1.39c-.55-.9-1.13-1.77-1.76-2.62l-.49-.61L41.18,6.68c-.55-.55-1.16-1-1.76-1.52s-1.26-.93-1.9-1.35a22.72,22.72,0,0,0-2.1-1.19l-.73-.36c-.26-.14-.49-.22-.76-.34a23.5,23.5,0,0,0-9-1.92,24.71,24.71,0,0,0-6.44.7A27.18,27.18,0,0,0,14.62,2a20.42,20.42,0,0,0-2.47,1.25c-.62.37-1.22.74-1.8,1.15a25.23,25.23,0,0,0-7.87,9.2A23.36,23.36,0,0,0,0,23.84"/><path class="cls-1" d="M23.07,46.57h-.52a3.16,3.16,0,0,1,.05-.66c.37,0,.91,0,.91.33S23.34,46.57,23.07,46.57Zm-1.8,2c.63,0,1.08.22,1.14,0,0-.06,0-.56,0-.62s0-.22,0-.33a2.9,2.9,0,0,1,0-.34c.55.13.62.8,1,1.53.46,0,.74,0,1.19,0a5.15,5.15,0,0,0-.63-1.38l0,0-.16-.13,0,0-.05-.05a1,1,0,0,0,.44-1.77,8.46,8.46,0,0,0-2.73-.32l-.1,1.76c0,.22,0,.58-.07.83l-.06.89"/><path class="cls-1" d="M16.21,47.39l2.86.76a3.81,3.81,0,0,0,.19-.81c-.17,0-1.63-.42-1.76-.48a6.21,6.21,0,0,0,.14-.62,6.4,6.4,0,0,0,.79.21c.29.09.55.16.83.22a3,3,0,0,0,.19-.72c-.53-.12-1-.3-1.57-.42a1.7,1.7,0,0,1,.1-.48c.32,0,1.41.4,1.76.43a1.63,1.63,0,0,1,.11-.42c.11-.42.11-.34-1-.6-.33-.08-1.57-.46-1.78-.46l-.91,3.39"/><path class="cls-1" d="M37,41a1,1,0,0,0,.24.34l1.69,2a1,1,0,0,0,.32.31c.33-.23,1.51-1.25,2-1.61a1.67,1.67,0,0,1,.28-.25,2.67,2.67,0,0,0-.53-.62l-1.2,1-.18.16a1.79,1.79,0,0,1-.43-.48l1.24-1.1a2.38,2.38,0,0,0-.48-.52,3.05,3.05,0,0,0-.31.26l-1,.79-.28-.38c.08-.13.19-.18.32-.31a9.13,9.13,0,0,0,1-.89,2.57,2.57,0,0,0-.47-.52c-.17,0-.42.31-.58.43s-.34.3-.54.45L37,41"/><path class="cls-1" d="M8.77,40.47c0,.75.82,1.34.82,1.72s-.86.28-.86-.24a1.43,1.43,0,0,1,.09-.43A2.6,2.6,0,0,0,8,40.9a1.3,1.3,0,0,0,.23,1.73c1.47,1.48,2.49.35,2.49-.25a1.59,1.59,0,0,0-.35-.93c-.19-.29-.51-.63-.51-.83s.24-.27.48,0,.16.37.09.67a6.09,6.09,0,0,0,.86.57A1.1,1.1,0,0,0,11,40.27c-1.34-1.33-2.21-.41-2.21.2"/><path class="cls-1" d="M33,43.48c.07.28.31.5.39.76.36-.09.65-.4,1-.48L35.61,46a2,2,0,0,0,.5-.22,5.2,5.2,0,0,1,.46-.25A6.49,6.49,0,0,0,36,44.35a9.23,9.23,0,0,1-.6-1.16l.9-.53a6,6,0,0,1-.38-.76,3,3,0,0,0-.73.37l-1.08.59-.37.2-.73.42"/><path class="cls-1" d="M12.59,42.71a6.17,6.17,0,0,0,.91.48,6.19,6.19,0,0,1-.6,1.17c-.12.21-.2.39-.32.59a1.67,1.67,0,0,0-.28.62,10.69,10.69,0,0,0,1,.48,2.71,2.71,0,0,1,.29-.56,16.89,16.89,0,0,0,.9-1.68c.35,0,.68.39,1.05.48a5.47,5.47,0,0,1,.38-.77,3.65,3.65,0,0,0-.34-.18l-.36-.22-1.45-.79A3,3,0,0,0,13,42c-.07.26-.31.48-.38.76"/><path class="cls-1" d="M29.46,48.29l-.05-.76c0-.16.05-.15-.46-.09a11.93,11.93,0,0,1-1.25.14c0-.7-.29-2-.29-2.58a6.84,6.84,0,0,0-.91.09c-.29,0-.21.13-.11.8,0,.21.29,2.63.35,2.69a12.7,12.7,0,0,0,1.78-.19c.31,0,.64-.1.94-.1"/><path class="cls-1" d="M30.51,44.29c0,.23.42,1.37.52,1.67l.53,1.66a1.43,1.43,0,0,0,.54-.12c.2-.06.33-.12.51-.16,0-.18-.41-1.41-.5-1.69L31.56,44c-.36,0-.69.26-1,.29"/><path class="cls-1" d="M45.43,27.12a4.6,4.6,0,0,1,.66.07c.32,0,.24-.05.29-.41s0-.49.06-.7,0-.42,0-.72c-1.28,0-.86-.15-1,.82a6,6,0,0,0-.07.94"/><path class="cls-1" d="M24.75,3.05v.19l1.33.1c.41,0,.53.18.53-.91-.61,0-1.19-.09-1.82-.09,0,.3,0,.39,0,.71"/><path class="cls-1" d="M16.83,3.72a3.72,3.72,0,0,0,.29.81c.27-.07.55-.17.83-.27a2.64,2.64,0,0,1,.4-.12A3.73,3.73,0,0,0,18.79,4c-.27-1.13,0-1-1.57-.47-.08,0-.39.1-.39.19"/><path class="cls-1" d="M44.15,32.13c1,.48.86.36,1.15-.52a5.64,5.64,0,0,0,.28-.91,6.28,6.28,0,0,1-.86-.24c-.1.21-.2.59-.28.82l-.29.85"/><path class="cls-1" d="M3.34,22l.28-1.76a7.11,7.11,0,0,0-.9-.14l-.27,1.64c0,.24.33.22.89.26"/><path class="cls-1" d="M22.07,2.48c0,.29.08.64.1.9l1.76-.14,0-.9a15.58,15.58,0,0,0-1.82.14"/><path class="cls-1" d="M43,34.5a1.37,1.37,0,0,1,.4.21,1.63,1.63,0,0,0,.43.18,7.75,7.75,0,0,0,.76-1.66,5.65,5.65,0,0,0-.81-.29L43,34.5"/><path class="cls-1" d="M7.92,9.73a6.3,6.3,0,0,0,.66.57A7.72,7.72,0,0,0,9.77,9.06a2.41,2.41,0,0,0-.57-.62A9.69,9.69,0,0,0,7.92,9.73"/><path class="cls-1" d="M38.9,9a5.15,5.15,0,0,0,.61.63,6.92,6.92,0,0,0,.63.66,5.18,5.18,0,0,1,.67-.57,8.64,8.64,0,0,0-1.29-1.34c-.19.13-.3.41-.62.62"/><path class="cls-1" d="M44.48,17.64,45,19.36a4.89,4.89,0,0,1,.86-.2,7.83,7.83,0,0,0-.48-1.76,8.53,8.53,0,0,0-.86.24"/><path class="cls-1" d="M36.9,7.34c.48.32,1.08.9,1.39,1.1l.57-.67a9.4,9.4,0,0,0-1.39-1.14,3.7,3.7,0,0,0-.57.71"/><path class="cls-1" d="M2.29,24.31v.29H3.2L3.27,23c0-.27,0-.19-.31-.21-.62,0-.6-.35-.67.91,0,.18,0,.39,0,.57"/><path class="cls-1" d="M43.53,15.21a10.88,10.88,0,0,0,.67,1.66c.25-.12.56-.2.8-.33a3.84,3.84,0,0,0-.3-.84c-.06-.14-.11-.27-.17-.4a1.69,1.69,0,0,1-.19-.43c-.31.08-.53.27-.81.34"/><path class="cls-1" d="M5.44,35.75c.08.15.12.25.22.41a13.09,13.09,0,0,0,.78,1.12,4.23,4.23,0,0,0,.71-.48,4.51,4.51,0,0,0-.45-.73l-.45-.75a1.32,1.32,0,0,0-.41.21,1.75,1.75,0,0,1-.4.22"/><path class="cls-1" d="M2.62,28.18c0,.33.3,1.43.38,1.8a6.63,6.63,0,0,1,.86-.19c0-.38-.32-1.31-.33-1.76-.3,0-.6.14-.91.15"/><path class="cls-1" d="M27.37,3.48a5.68,5.68,0,0,1,.87.13,6.52,6.52,0,0,0,.84.16,4.88,4.88,0,0,0,.19-.91c-.39,0-1.25-.29-1.81-.29,0,.35-.09.57-.09.91"/><path class="cls-1" d="M3.82,19.45a12.41,12.41,0,0,1,.47-1.67,3.06,3.06,0,0,0-.9-.28L3,18.8c-.13.54-.19.41.44.57a1.68,1.68,0,0,0,.36.08"/><path class="cls-1" d="M32.37,4.82l.8.34a7,7,0,0,0,.82.37l.39-.81c-.59-.31-1.14-.51-1.67-.76-.13.26-.21.6-.34.86"/><path class="cls-1" d="M4.2,33.37c.08.34.73,1.49.76,1.62.24,0,.58-.31.81-.38-.07-.32-.64-1.26-.71-1.57a2.7,2.7,0,0,0-.86.33"/><path class="cls-1" d="M40.71,10.92c.17.24.34.43.52.67a4.06,4.06,0,0,0,.54.66,2.49,2.49,0,0,0,.71-.52,12.5,12.5,0,0,0-1.1-1.39c-.15.05-.06,0-.18.11a2.19,2.19,0,0,0-.49.47"/><path class="cls-1" d="M19.41,2.91c0,.32.16.61.19.9a17.35,17.35,0,0,1,1.71-.33c0-.36-.09-.59-.09-.91a15.88,15.88,0,0,0-1.81.34"/><path class="cls-1" d="M4.87,14.21l.76.38A14.73,14.73,0,0,0,6.49,13a6.69,6.69,0,0,1-.77-.43,11,11,0,0,0-.85,1.62"/><path class="cls-1" d="M12,6.1a2.31,2.31,0,0,0,.47.81l.72-.46A8.31,8.31,0,0,1,14,6a3.49,3.49,0,0,0-.43-.81L12,6.1"/><path class="cls-1" d="M34.75,5.91a5,5,0,0,0,.72.48,4.46,4.46,0,0,0,.76.43l.48-.72c-.13-.08-.21-.16-.37-.25a9,9,0,0,0-1.2-.7,6.12,6.12,0,0,0-.39.76"/><path class="cls-1" d="M14.3,4.77c.15.27.29.53.43.81.26-.13.51-.23.78-.37l.4-.18a2.2,2.2,0,0,1,.39-.17A3.91,3.91,0,0,0,16,4c-.27.14-.54.23-.82.37l-.85.4"/><path class="cls-1" d="M29.94,4c.39,0,1.33.47,1.67.48a3.53,3.53,0,0,0,.24-.86c-.46-.1-1.05-.37-1.72-.52a4.36,4.36,0,0,0-.19.9"/><path class="cls-1" d="M9.87,7.82a1,1,0,0,0,.27.34c.13.14.15.22.3.32.33-.22.87-.73,1.34-1a2.76,2.76,0,0,0-.53-.77l-1,.83a1.15,1.15,0,0,0-.34.32"/><path class="cls-1" d="M3.25,30.84a13.44,13.44,0,0,0,.61,1.72c.26-.12.57-.2.82-.33L4.1,30.56l-.85.28"/><path class="cls-1" d="M6.25,11.87a3.23,3.23,0,0,0,.76.48L8,11a1.28,1.28,0,0,0-.3-.26,1,1,0,0,0-.37-.26,7.28,7.28,0,0,0-1.09,1.43"/><path class="cls-1" d="M45.15,20.16c0,.27.1.57.15.86s.07.6.13.86a3.6,3.6,0,0,0,.91-.09l-.28-1.69c-.1-.26-.31,0-.91.06"/><path class="cls-1" d="M3.72,16.64a6.36,6.36,0,0,0,.86.33,3.22,3.22,0,0,1,.16-.42l.51-1.2L4.44,15l-.55,1.22a2.75,2.75,0,0,0-.17.45"/><path class="cls-1" d="M2.34,25.5c0,.37,0,.6.05.91s.09.63.09.91c.31,0,.59-.1.91-.1,0-.26-.07-.63-.09-.86s0-.64,0-.9l-.91,0"/><path class="cls-1" d="M45,29.61c0,.09.29.13.41.16a2.44,2.44,0,0,1,.45.12l.38-1.81a8.65,8.65,0,0,0-.91-.14c0,.44-.33,1.4-.33,1.67"/><path class="cls-1" d="M41.71,36.75c.28.08.42.41.77.43a4.2,4.2,0,0,1,.46-.73l.44-.74a2.74,2.74,0,0,0-.76-.48,11.49,11.49,0,0,0-.91,1.52"/><path class="cls-1" d="M42.24,13l.86,1.52a1.42,1.42,0,0,0,.41-.2,3.81,3.81,0,0,0,.4-.23L43,12.49c-.27.14-.48.33-.76.48"/><path class="cls-1" d="M45.53,22.74c0,.64,0,1.11,0,1.76h.9l0-1.81-.9,0"/><path class="cls-1" d="M40.57,38.14c.25.17.52.47.72.52a2.4,2.4,0,0,0,.57-.81,6,6,0,0,1-.72-.48c-.1.19-.38.49-.57.77"/><path class="cls-1" d="M7,38a1.57,1.57,0,0,0,.57.76c.12-.08.18-.16.32-.26a1.25,1.25,0,0,0,.3-.31,2.83,2.83,0,0,0-.52-.67A8,8,0,0,1,7,38"/><path class="cls-1" d="M32.23,13.21h1.62v4.91H32.23Zm0,4.93h1.68a39,39,0,0,0,0-5H32.22c-.08.29-.07,4.49,0,5"/><path class="cls-1" d="M10.3,29.89h3.48v.91H10.3Zm0,.92a34.65,34.65,0,0,0,3.53,0v-.95a27.72,27.72,0,0,0-3.53,0v.94"/><path class="cls-1" d="M34.79,16.11s0,0,0,0l.08,0c.21.05,3.32,0,3.42,0v-1l-3.51,0h3.49v.9h-3.5"/></g></g></g></svg>