<svg xmlns="http://www.w3.org/2000/svg" xmlns:xlink="http://www.w3.org/1999/xlink" viewBox="0 0 275.54 94.61"><defs><style>.cls-1{fill:none;}.cls-2{clip-path:url(#clip-path);}.cls-3{fill:#ec2d2e;}.cls-4{fill:#fff;}.cls-5{fill:#231f20;}.cls-6{clip-path:url(#clip-path-2);}.cls-7{clip-path:url(#clip-path-3);}.cls-8{clip-path:url(#clip-path-4);}.cls-9{clip-path:url(#clip-path-5);}.cls-10{clip-path:url(#clip-path-6);}.cls-11{clip-path:url(#clip-path-7);}.cls-12{clip-path:url(#clip-path-8);}.cls-13{clip-path:url(#clip-path-9);}.cls-14{clip-path:url(#clip-path-10);}.cls-15{clip-path:url(#clip-path-11);}.cls-16{clip-path:url(#clip-path-12);}.cls-17{clip-path:url(#clip-path-13);}.cls-18{clip-path:url(#clip-path-14);}.cls-19{clip-path:url(#clip-path-15);}.cls-20{clip-path:url(#clip-path-16);}.cls-21{clip-path:url(#clip-path-17);}.cls-22{clip-path:url(#clip-path-18);}.cls-23{clip-path:url(#clip-path-19);}</style><clipPath id="clip-path"><rect class="cls-1" x="197" y="6" width="53" height="88.61"/></clipPath><clipPath id="clip-path-2"><rect class="cls-1" x="254" y="11" width="21.54" height="6"/></clipPath><clipPath id="clip-path-3"><rect class="cls-1" x="254" y="29" width="21.54" height="22"/></clipPath><clipPath id="clip-path-4"><rect class="cls-1" x="257" y="75" width="17" height="19.61"/></clipPath><clipPath id="clip-path-5"><rect class="cls-1" x="12" y="85" width="16" height="9.61"/></clipPath><clipPath id="clip-path-6"><rect class="cls-1" x="170" y="85" width="15" height="9.61"/></clipPath><clipPath id="clip-path-7"><rect class="cls-1" x="155" y="85" width="14" height="9.61"/></clipPath><clipPath id="clip-path-8"><rect class="cls-1" x="69" y="85" width="14" height="9.61"/></clipPath><clipPath id="clip-path-9"><rect class="cls-1" x="54" y="85" width="14" height="9.61"/></clipPath><clipPath id="clip-path-10"><rect class="cls-1" x="132" y="85" width="14" height="9.61"/></clipPath><clipPath id="clip-path-11"><rect class="cls-1" x="104" y="85" width="14" height="9.61"/></clipPath><clipPath id="clip-path-12"><rect class="cls-1" x="83" y="85" width="14" height="9.61"/></clipPath><clipPath id="clip-path-13"><rect class="cls-1" x="28" y="85" width="13" height="9.61"/></clipPath><clipPath id="clip-path-14"><rect class="cls-1" y="85" width="11" height="9.61"/></clipPath><clipPath id="clip-path-15"><rect class="cls-1" x="119" y="85" width="12" height="9.61"/></clipPath><clipPath id="clip-path-16"><rect class="cls-1" x="41" y="85" width="12" height="9.61"/></clipPath><clipPath id="clip-path-17"><rect class="cls-1" x="265" y="53" width="10.54" height="12"/></clipPath><clipPath id="clip-path-18"><rect class="cls-1" x="98" y="85" width="5" height="9.61"/></clipPath><clipPath id="clip-path-19"><rect class="cls-1" x="187" y="92" width="4" height="2.61"/></clipPath></defs><g id="Layer_2" data-name="Layer 2"><g id="Layer_1-2" data-name="Layer 1"><g id="surface1"><g class="cls-2"><path class="cls-3" d="M199.37,73.08c0,.21-.36.94-.36,1.3-.22.21-.22.21-.22.57a2,2,0,0,0-.36,1.08c0,.22.22.58.22.79a2.87,2.87,0,0,1,.14,1.08c0,.15-.14.58-.14.72a1.49,1.49,0,0,0-.22.94v2.73c0,.22,0,.36-.22.36V83a.58.58,0,0,0,.22.57c0,.72.22,1.51.22,2.23a21.86,21.86,0,0,1-.22,3.82,3.63,3.63,0,0,0,.22,1.51,1,1,0,0,0,.14.58,2.48,2.48,0,0,0,.94,1.8,3.3,3.3,0,0,0,1.87.72h.86a1.52,1.52,0,0,0,.8-.15c.14,0,.36-.21.5-.21h.58c.14,0,.36,0,.36-.15h.71a8.56,8.56,0,0,1,1.88.15c.14.21.5.21.93.36a5.18,5.18,0,0,0,1.8,0,2.26,2.26,0,0,0,1.66,0,7.83,7.83,0,0,0,1.87-.15,10.32,10.32,0,0,1,3.31-.57,12.06,12.06,0,0,1,2.74.21c0,.15.22.15.36.15h.36c0-.15.22,0,.43,0,0,0,.14,0,.14.21.22,0,.22.15.37.15s.21.21.36,0c.21.21.21.21.36.21h.79l.86.15h.43c.15,0,.15,0,.15-.15h.58c.14,0,.35.15.57.15a10.47,10.47,0,0,0,2.16-.15,6.2,6.2,0,0,1,1.15-.36c.51,0,1.08-.21,1.66-.21h1.8l4.25-.15h.35s0,.15.22.15a.51.51,0,0,0,.36.21H238a3.27,3.27,0,0,0,1.3.15h4.39l.36.21h2.59c.36,0,.58-.21.72-.21,0-.15.22-.36.22-.36.21-.15.21-.15.36-.15,0-.21.21-.21.36-.21h-.15c.15,0,.36,0,.36-.15.15,0,.15-.21.15-.43.21-.15.21-.36.43-.5v-.72a13.5,13.5,0,0,0,.15-2.45V87.84c.21,0,0-.36,0-.36l-.15-.22V86.9l-.22-.57a2.72,2.72,0,0,1,.22-1.23,1.51,1.51,0,0,1,.15-.79c0-.36.21-.51,0-.72,0-.36,0-.57-.15-.72a4.39,4.39,0,0,1-.43-1.3,13.48,13.48,0,0,1-.36-2.59V77.54a2.64,2.64,0,0,0,0-1.29,15.1,15.1,0,0,1,0-3.68,15.86,15.86,0,0,1,.57-4.24,8.94,8.94,0,0,0,.37-2.38c0-.57-.15-1.15-.15-1.66-.22-.93-.22-1.65-.43-2.37s-.36-1.3-.51-1.87c0-.36-.21-.72-.21-1.09a7.67,7.67,0,0,0,.36-1.15,3.06,3.06,0,0,1,.36-1.08c0-.21.21-.35.21-.57a4.24,4.24,0,0,0,.37-1.66c0-.72.71-1.29.35-2-.14-.71-.35-1.65-.5-2.59a10.53,10.53,0,0,1,.36-4.17,1,1,0,0,0,.36-1.15c0-.36-.36-.51-.57-.72-.37-.58.21-.94-.37-.94-.21,0,0-.14,0-.5s-.21-.36-.21-.58c.21-.36,0-.94,0-1.44a1.49,1.49,0,0,0-.15-.79v-3a8.15,8.15,0,0,1,.15-1.79,1,1,0,0,0,0-1.08,1.16,1.16,0,0,0-.36-.94,3,3,0,0,1-.36-1.29,1.69,1.69,0,0,1,.21-1.3l.15-2.95.57-4.61a5.77,5.77,0,0,0,0-2.74,11.51,11.51,0,0,0-.36-2.23,6.86,6.86,0,0,1-.36-1.8V12.38c0-.36-.21-.72-.21-1.29-.15-.36-.36-.94-.58-1.45a10.52,10.52,0,0,0-1.22-1.14,4.38,4.38,0,0,1-.58-.51h-3a2.71,2.71,0,0,1-1.3-.22,1.33,1.33,0,0,1-1.07-.57,2.75,2.75,0,0,0-1.16-.15,1.75,1.75,0,0,0-.86.15c-.79,0-1.52.21-2.45.21h-2.16c-.79,0-1.3-.21-1.87-.21a13.91,13.91,0,0,0-2.38-.15,1,1,0,0,0-.72-.21.73.73,0,0,1-.57.21c-.58.36-.94.36-1.3.58a2.54,2.54,0,0,1-.94.14,1.37,1.37,0,0,1-.93.22h-3.82l-1.65.14c-.22,0-.36.22-.8.22H218a6.36,6.36,0,0,0-2-.22c-.36,0-.58.22-.94.22l-1.29-.22L212,8l-1.44-.22-1.51-.14a1.06,1.06,0,0,0-.72-.43,5.17,5.17,0,0,1-1.3-.36h-1.8a10.14,10.14,0,0,0-1.87.36c-.58.21-1.08.57-1.66.79a16.85,16.85,0,0,0-1.65.72,2.76,2.76,0,0,0-1.66,1.08,2.9,2.9,0,0,0-.36,1.3v1.65l-.21,1.66a2.69,2.69,0,0,0-.15,1.08,2.23,2.23,0,0,0,.36,1.15c.14.14.36.5.58.72a1.1,1.1,0,0,1,0,.94,2.85,2.85,0,0,1,.14,1.08,6.83,6.83,0,0,1-.93,3.31,2.64,2.64,0,0,0-.51,1.66,3.17,3.17,0,0,0,.15,1.14l.21.87v.58a7.67,7.67,0,0,1,.36,1.44V30a4.73,4.73,0,0,0-.21,1.66c0,.57.21.93.21,1.51a9.15,9.15,0,0,0,.58,1.29,2.34,2.34,0,0,0,.14.94,3.16,3.16,0,0,1,.22,1.44,6.33,6.33,0,0,1-.22,2,12.33,12.33,0,0,0-.36,2.23,11.53,11.53,0,0,0-.22,2.74,16.11,16.11,0,0,1,.58,1.87,4.34,4.34,0,0,1,0,2.37l-.14,2.24-.58,2.15-.21,2.38v3c.21.58.21.94.57,1.3a6.37,6.37,0,0,0,.36,1.66v1.51a4.49,4.49,0,0,1,.22,1.8,2.71,2.71,0,0,1-.22,1.3,1.87,1.87,0,0,1,.22,1.07c0,.58.14,1.16.14,1.66,0,.22.22.58.22.79s-.22.15-.22.36v1.8c0,.8.22,1.66.22,2"/></g><path class="cls-4" d="M201.82,73.65c.14,0-.44-.57-.44-1.29,0-.22.8-.79.94-1.3l.22-.21s0-.15-.22-.37v-.36a4.25,4.25,0,0,0,.36-.93V67.54l.21-.73v-.72c0-.21-.21-.36-.21-.57v-1.3c0-.14,0-.14.21-.36a.27.27,0,0,0,0-.36.21.21,0,0,0-.21-.21v-.51a.87.87,0,0,0-.14-.57v-.36a.48.48,0,0,0-.22-.37v-.36c0-.35.22-.57.22-.93a.9.9,0,0,0,.14-.58c0-.14,0-.36-.14-.36V58a.71.71,0,0,0,.14-.51.87.87,0,0,0-.14-.57V56.3c0-.14-.22-.36-.22-.72v-2a.66.66,0,0,1,.22-.58.55.55,0,0,0-.22-.51,2.12,2.12,0,0,1,.22-1.14V50.25a1.42,1.42,0,0,0,.14-.71V49a.72.72,0,0,0-.14-.36.66.66,0,0,0-.22-.58V46.94a1.92,1.92,0,0,0,.22-1.08,3.24,3.24,0,0,0,.14-1.15V44c0-.36-.14-.72-.14-1.08V40.1a1.92,1.92,0,0,1-.22-1.08c-.14-.57,0-.36.57-1.44.15-.79-.57-.57-.57-.94s.72-.35.57-.71a3.09,3.09,0,0,0,0-1.66V33c-.21-.57,0-.72,0-1.29a5.94,5.94,0,0,1-.35-1.66V28.94c0-.43-.72-1.3-.58-1.65l-.36-1.52.22-2V21.89c0-.36.14-.72.14-1.23l.22-1.51V16.92a1.21,1.21,0,0,0-.22-.72v-.94a4.9,4.9,0,0,1,0-1.44,4.46,4.46,0,0,1,.36-1.29c0-.15.22-.15.22-.36s0-.37.14-.37c0-.21.21-.21.21-.35h.58a.54.54,0,0,1,.51-.22h-.15a1.23,1.23,0,0,1,.72-.14h3.1c1.3,0,2.59-.22,3.74-.22a22.26,22.26,0,0,1,3.82.22h3.17a18.88,18.88,0,0,1,2.23-.36,11.74,11.74,0,0,1,1.22-.44c.22,0,.58-.14.94-.14a13.41,13.41,0,0,1,2.37.14h3.17a2.87,2.87,0,0,0,1.08-.14,1.56,1.56,0,0,1,.79.14l2.16-.14,2.81.14h1.08c.22.22.22.22.36.22a.66.66,0,0,0,.58-.22h1.29c.36,0,.87.22,1.3.22a5.33,5.33,0,0,1,2.38.58,5.68,5.68,0,0,1,1.65,1.29,1.94,1.94,0,0,0,.58.72c.14.15.36.36.5.36s.22.36.22.36a2.29,2.29,0,0,0,.36.58.53.53,0,0,0-.22.5c0,.36.22.58.22.8a.68.68,0,0,1,.14.5c.22.21,0,.36-.14.57s0,.58-.22.73v2.37a3,3,0,0,0,.22,1.3v4.6l-.22.94-.14,1.08a6.37,6.37,0,0,1-.36,1.66,11,11,0,0,1-.79,2,2.07,2.07,0,0,0-.15.94,2.09,2.09,0,0,0,.15.94,1.28,1.28,0,0,1,.43.93,6.28,6.28,0,0,1,.36,1.66V39a2.87,2.87,0,0,0,.14,1.08,1.38,1.38,0,0,0,.22.94c0,.36.14.72.14.93.22.37.94,1.3,1.15,1.66-.21.36,0,.94,0,1.08a3,3,0,0,1,.15,1.15c0,.36.21.51.21.72v1.08a4,4,0,0,1,0,3.17V51a17.28,17.28,0,0,1-.93,4.25,26.48,26.48,0,0,1-1.44,4.39,1.59,1.59,0,0,0-.58,1.3,1.79,1.79,0,0,0,.15.94l.43,1.44.5,1.29a9.77,9.77,0,0,1,.72,2.6v2.37a1.87,1.87,0,0,0-.14.93,4.09,4.09,0,0,0,.14,1.3,9.42,9.42,0,0,1-.5,2.38c0,1.15.93,1.51,1.08,2.38l.21.93c-.21.36,0,.94-.21,1.15a1.15,1.15,0,0,0-.58,1.08,14,14,0,0,0,.43,1.44c0,.58.15.58,0,.79.15.15.15.51.15.87a1.47,1.47,0,0,1-.15.79,6.62,6.62,0,0,0-.21,2A9.06,9.06,0,0,0,246,88a3.89,3.89,0,0,1-.57,2,3.42,3.42,0,0,1-2.24,1.51h-1.65a23.14,23.14,0,0,1-3.89-.22h-1.22c-.43-.21-.79-.21-1.15-.36a9.34,9.34,0,0,1-.94-.21,10.72,10.72,0,0,0-1.8-.36H230.9c-.72,0-1.65.21-2.37.21a3.38,3.38,0,0,1-1.73,0,4.73,4.73,0,0,1-1.66-.21c-.35,0-.71-.15-1.08-.15s-.57-.21-.72-.21h-.72a8.27,8.27,0,0,1-1.15-.58,2.87,2.87,0,0,0-1.08-.14,1.78,1.78,0,0,0-1.29.36,1.7,1.7,0,0,1-.94.36c-.36.21-.72.36-1.08.57-.22,0-.36.15-.58.15h-3.81c-.22,0-.58-.15-.8-.15a.53.53,0,0,0-.5-.21h-2.23c-.36,0-.57.21-.94,0-.14,0-.57,0-.72-.15h-.71a7.9,7.9,0,0,0-2,.15c-.58,0-.94,0-1.3-.36-.21,0-.43-.36-.58-.58s-.21-.36-.35-.72a.69.69,0,0,1,.14-.5V85.75a2.87,2.87,0,0,1-.14-1.08c0-.22.14-.36.14-.58a.67.67,0,0,0,0-.86c0-.21-.14-.21-.14-.43a.54.54,0,0,1-.22-.51c.22,0,.22-.21.22-.36a1.29,1.29,0,0,0-.22-.79.39.39,0,0,0-.36-.36c0-.14-.14-.36-.14-.5V78.77c0-.15-.22-.36-.22-.58a1.6,1.6,0,0,1,.22-.86c0-.22.14-.37.14-.58.22-.57.72-.94.72-1.3s-.86-1.29-.86-1.8"/><path class="cls-5" d="M129,11.73V67h9.94l-.22-46.23a2,2,0,0,1,1.87-1.8,1.76,1.76,0,0,1,1.66,1.8V67h9.72V20.73a1.58,1.58,0,0,1,1.44-1.65,1.63,1.63,0,0,1,1.87,1.65V67H165l-.14-47.31a7.94,7.94,0,0,0-5.19-7.7,7.42,7.42,0,0,0-8.85,2.74A7.48,7.48,0,0,0,138.89,14V11.73H129"/><path class="cls-3" d="M228.53,29.38h-.8c-.14-.15-.35-.15-.5-.36l-.57-.58a.85.85,0,0,1-.58-.15h-.36a.68.68,0,0,0-.51.15l-.21.21a.49.49,0,0,0-.21.37.77.77,0,0,1-.51.36c-.22.21-.36.21-.72.21a6.05,6.05,0,0,0-1.51.14,20.75,20.75,0,0,1-3-.14.49.49,0,0,0-.72,0,.55.55,0,0,0-.36.14c-.22.22-.58.22-.72.36-.44,0-.58.22-.8.22a.39.39,0,0,0-.36.36c-.14.22,0,.36,0,.58.22,0,.36.14.58.36.14,0,.14.14.14.35.22.15.22.37.44.37.14.21.5.21.72.21s.5,0,.71-.21h.58a1.68,1.68,0,0,1,.51-.22h2.23c.57,0,1.08.22,1.65.22.22,0,.22.21.22.36a.21.21,0,0,1-.22.21.74.74,0,0,1-.36.51c0,.21-.21.21-.36.21a.83.83,0,0,1-.36.15.73.73,0,0,0-.21.57c-.14.22-.36.36-.51.58a2.71,2.71,0,0,0-.57.72c0,.22-.22.36-.22.57s-.36.15-.72.36l-2.23,1.66-1.8,1.3a11.31,11.31,0,0,0-1.15,1.29,4.62,4.62,0,0,0-.36,1.44c0,.22.21.58.36.58a.78.78,0,0,0,.79,0,5.7,5.7,0,0,1,1.08-.36,6.25,6.25,0,0,1,1.3-.79L220.61,40l1.44-1.3a1.87,1.87,0,0,1,.93-.14,1,1,0,0,1,.58.14,3.26,3.26,0,0,1,1.65.58,5.31,5.31,0,0,1,.87.72,1.78,1.78,0,0,1,.36.79,1.12,1.12,0,0,1-.5,1.08.73.73,0,0,1-.37.15,4.38,4.38,0,0,1-.57.57c-.21,0-.21.22-.36.22,0,.14-.21.14-.36.36a2.29,2.29,0,0,0-.58.36c-.14.21-.36.36-.36.57-.21,0-.21,0-.36.15h-.36a1.45,1.45,0,0,0-.72.36,5.1,5.1,0,0,0-.57.57c-.22.36-.22.58-.36.72-.22.36-.36.94-.58,1.3v.57c0,.15,0,.37.22.37-.22.14,0,.36,0,.36.14.36.5.21.72,0,.36,0,.57-.22.94-.36.14-.22.5-.37.71-.58a39.14,39.14,0,0,0,3-3,27.73,27.73,0,0,0,2.23-2c.36-.14.5-.36.86-.36a1.7,1.7,0,0,1,.94.22l2,1.8,2.38,2a.73.73,0,0,0,.43.22h.36a.36.36,0,0,0,.36.14c.15.22.36.44.36.58a3,3,0,0,0,.94.94,1.4,1.4,0,0,0,.93.72c.15.21.37.21.51.36s.36.36.57.36c.15.21.36.57.58.57.14.22.36.36.5.58a1.47,1.47,0,0,0,.72.14,1.51,1.51,0,0,0,.94-.36,9.68,9.68,0,0,0,1.65-1.44,7.35,7.35,0,0,0,1.52-1.87.79.79,0,0,0,.14-.58c-.14-.14-.14-.14-.36-.14a7.47,7.47,0,0,0-1.3-.58c-.14,0-.35-.14-.5-.14-.21-.22-.43-.22-.57-.36h-.94c-.15,0-.36-.22-.36-.22-.22-.21-.36-.35-.57-.35-.15-.22-.15-.22-.37-.22,0-.14-.14-.14-.36-.14a.49.49,0,0,0-.36-.22l-1.07-.51-.94-.43a.73.73,0,0,1-.36-.5,2.05,2.05,0,0,1-.72-.58c-.43-.21-.79-.57-1.15-.72a31.73,31.73,0,0,0-2.74-1.87c-.22,0-.36-.36-.36-.5-.22-.22,0-.44.36-.58a1.77,1.77,0,0,1,.72-.72c.22-.36.36-.79.58-1.15a7.65,7.65,0,0,0,.14-.86c0-.22-.14-.44-.14-.58a2.61,2.61,0,0,0-1.16-1.08,2.15,2.15,0,0,0-1.65-.94c0-.21-.15,0-.36,0,0,.15,0,.36.21.36,0,.15.15.58.15.72a6,6,0,0,1,.36.94v.36c0,.22,0,.36-.15.36,0,.21-.21.36-.21.57a3.54,3.54,0,0,1-.72.94.81.81,0,0,1-.58.14c-.14.22-.36,0-.5,0-.58-.36-1.16-.57-1.66-.93s-1.15-.51-1.66-.86A7.16,7.16,0,0,1,227,33.77a11.24,11.24,0,0,1,1.29-1.66,1.78,1.78,0,0,1,.72-.72c.22,0,.36-.14.58-.14a.87.87,0,0,0,.57.14h.51a1.09,1.09,0,0,0,.79.22c.14,0,.5-.22.72-.22s.72-.14,1.08-.14h1.29c.22,0,.58.14.73,0,.36,0,.79,0,.93-.22a.78.78,0,0,0,.72-.36l.22-.22c.14-.14.36-.36.14-.5,0-.22-.14-.22-.14-.36a7.6,7.6,0,0,0-1.08-.36c-.43,0-.58-.21-.94-.21s-.36-.22-.58-.22H233.5a1.44,1.44,0,0,0-.8.22c-.14,0-.5.21-.72.21h-1.8a.82.82,0,0,0-.57.15h-1.08"/><path class="cls-5" d="M6.05,0A6.83,6.83,0,0,0,2,1.8,6.66,6.66,0,0,0,0,6.62L.21,24.84a8.42,8.42,0,0,0,.51,3.09,6.11,6.11,0,0,0,2.81,3.32l9.93,5.9a3.64,3.64,0,0,1,1.44,1.51,4.4,4.4,0,0,1,.37,1.8V57a2.28,2.28,0,0,1-2.38,2.23,2.37,2.37,0,0,1-2-2.23V39.89H.21L.36,59.25A10.08,10.08,0,0,0,3.17,66a8.32,8.32,0,0,0,5.69,2.23h8.49A9,9,0,0,0,23,65.52,9.21,9.21,0,0,0,25.63,59V37.73A10.32,10.32,0,0,0,24,33.48a8.84,8.84,0,0,0-2.24-2l-9.43-5.69a2.88,2.88,0,0,1-1.22-1.65,1.83,1.83,0,0,1-.43-1.51l-.15-11.74a2.46,2.46,0,0,1,2.38-2.45c1.08,0,2,1.15,2.23,2.45v12H25.63L25.41,6.41a6.39,6.39,0,0,0-1.65-4.18A7,7,0,0,0,19.37,0H6.05"/><path class="cls-3" d="M229.39,54.43a.78.78,0,0,1-.57-.14V53.13c0-.14-.22-.14-.36-.36s-.22-.36-.36-.57a5.62,5.62,0,0,0-.94-.36c-.36-.14-.57-.14-.72,0a.38.38,0,0,0-.36.36v.57a1.91,1.91,0,0,1-.43.36c-.36.37-.72.94-1.08,1.3-.36.58-.72,1.08-1.08,1.66-.22.21-.22.36-.36.57a2.29,2.29,0,0,0-.79.51,1.54,1.54,0,0,1-.72.57c-.15.22-.36.36-.36.58-.22,0-.22.14-.22.14a.4.4,0,0,0,.43.36h.36a1.44,1.44,0,0,0,.72-.14s.15,0,.15-.22h.79l.14.22v3.67l.22,2.74v8.28c0,1.15-.22,2.44-.22,3.74,0,.36-.14.86-.14,1.23s-.22.78-.22,1.14a11.13,11.13,0,0,0,0,2.16,16.45,16.45,0,0,0,.22,3.32c0,.43.14.58.5.58s.22-.15.36-.36a6.45,6.45,0,0,0,.58-1.45,5.19,5.19,0,0,0,.36-1.87c.21-.57.21-1.29.36-1.87V78.55a.68.68,0,0,1,.21-.58.47.47,0,0,1,.36-.36,4.24,4.24,0,0,0,.73-.14h.57c0-.22.21-.22.36-.36h2.23a6.39,6.39,0,0,0,1.66.14,2,2,0,0,1,.93-.14,1.63,1.63,0,0,1,.87-.22c.43.22.57.22.79.36a17.56,17.56,0,0,1,1.8.58,13.42,13.42,0,0,1,1.66.94,3.06,3.06,0,0,0,1.15.14h.5c.22,0,.36,0,.36.21H241c.15-.21.51-.21.72-.35a2,2,0,0,0,1.44-.58,6.5,6.5,0,0,1,.8-.72v-.58s-.22-.21-.37-.21a1.26,1.26,0,0,1-.78-.36c-.36,0-.73,0-.87-.14h-1.15c-.36,0-.72-.22-1.08-.22s-.72-.15-1.15-.15a1.68,1.68,0,0,0-.87-.21h-2.23a13.83,13.83,0,0,1-1.87-.36.93.93,0,0,1-.14-.36c-.22,0-.22-.22-.22-.36.22-.22.22-.58.36-.72v-.43c-.14,0-.14-.15,0-.36s.22-.15.43-.37h1.08c.36,0,.72-.14,1.08-.14.36-.21.72-.21,1.15-.43a3.17,3.17,0,0,0,.87-.5.68.68,0,0,0,.21-.58c0-.14-.21-.14-.36-.14,0-.22-.21-.22-.36-.22h-.57c-.22-.22-.22-.22-.37-.22a.65.65,0,0,0-.57.22h-.94a.53.53,0,0,0-.5.22c-.22,0-.36-.22-.58-.22-.14-.22-.35-.22-.35-.36a.65.65,0,0,1-.22-.57v-.51l.22-1.3v-.21c0-.14.21-.58.35-.58l.22-.14c.14.14.14.14.36,0h.94a.57.57,0,0,0,.36.14c.14,0,.36.22.5,0h.36a3.4,3.4,0,0,0,.94-.36c.36-.36.72-.5.93-1.08.22,0,.22-.21.22-.36h-.22c-.36-.21-.57-.21-.72-.36h-1.65c0,.15-.22.15-.22.15h-.36c-.14,0-.14,0-.36-.15a.68.68,0,0,1-.58-.21.76.76,0,0,1-.5-.36V62.93c0-.22.14-.22.14-.36.22,0,.22-.22.36-.22a1.12,1.12,0,0,1,.8-.22,1.87,1.87,0,0,1,1.07.22h.58a.54.54,0,0,0,.51-.22,2,2,0,0,0,1.29-.5c.22-.22.58-.36.72-.58s.22-.35,0-.35c0-.22-.14-.22-.14-.22-.22-.14-.36-.36-.58-.36h-4.75c-.22,0-.57-.15-.79-.15s-.36-.21-.72-.21l2.37-2.38c.22-.21.44-.36.44-.58v-.71c-.22,0-.22-.15,0-.36-.22-.22-.22-.22-.22-.36-.22,0-.22-.22-.36-.22a3.27,3.27,0,0,0-1.08-.36,15.71,15.71,0,0,0-1.51-.5h-1.66a4.28,4.28,0,0,0-.72.14h-.72"/><path class="cls-5" d="M53.64,12l.15,69.19h9.78V63.14c1.09,4,5.19,6,8.64,4.4a6.71,6.71,0,0,0,3.68-6.06v-41a7.15,7.15,0,0,0-7-8.43,7,7,0,0,0-5.69,3.32L63.36,12H53.64"/><path class="cls-5" d="M189.94,17.64A7.1,7.1,0,0,0,188.06,13a6.82,6.82,0,0,0-4.39-2.23h-9.94A6.49,6.49,0,0,0,169.49,13a8.27,8.27,0,0,0-1.87,4.39V60a8.14,8.14,0,0,0,1.87,5,6.57,6.57,0,0,0,4.61,2l9.93-.22a6.58,6.58,0,0,0,4.47-2.37,8,8,0,0,0,1.65-4.76V46.37h-9.58V57.53a1.82,1.82,0,0,1-1.87,1.65,1.91,1.91,0,0,1-1.65-1.8V40.46h13.1l-.21-22.82"/><path class="cls-5" d="M110.52,11.23a5.79,5.79,0,0,0-5,2.52,8,8,0,0,0-1.87,4.46V59.76a8.56,8.56,0,0,0,2.23,5.18,6.88,6.88,0,0,0,4.75,2.24l7.93-.22a6.41,6.41,0,0,0,5-2.23,7,7,0,0,0,2-5V46.51l-9.36-.14.22,10.8A1.81,1.81,0,0,1,114.19,59a1.7,1.7,0,0,1-1.3-1.87l-.21-16.71h12.89V18.93a8.58,8.58,0,0,0-2-5.54A7.46,7.46,0,0,0,119,11l-8.43.21"/><path class="cls-5" d="M28.73,12l.14,48.75a6.69,6.69,0,0,0,6.27,6.84,6.64,6.64,0,0,0,6.26-5.33V67l9.22.22L50.4,12h-9V58A1.78,1.78,0,0,1,39,59.61a1.89,1.89,0,0,1-1.29-1.43V12h-9"/><path class="cls-5" d="M79,12l.22,55.23h9.58V20a1.5,1.5,0,0,1,1.43-1.66A1.7,1.7,0,0,1,92,20V33.26H100V19.08a6.47,6.47,0,0,0-3.67-6.77,5.63,5.63,0,0,0-7.56,2.59V12H79"/><g class="cls-6"><path class="cls-5" d="M258.12,16.34c4.39-.14,8.86-.14,13.25,0v-2H275V13h-3.82a10.77,10.77,0,0,1,.15-2H258.12a8.43,8.43,0,0,1,.15,2h-4a2.69,2.69,0,0,1,.22,1.3h3.82a5.49,5.49,0,0,1-.15,2"/></g><g class="cls-7"><path class="cls-5" d="M255.53,43.85v1.44c2.09,0,4.1-.15,6.12-.15a11.85,11.85,0,0,1-7,3.67c.87.58,1.3,1.08,1.3,1.44a13.2,13.2,0,0,0,7.34-5.11H264c0,3.1-.14,4.75-.14,5.55h1.8V45.14h.58c2.37,3,4.6,4.61,7,5a5.74,5.74,0,0,1,1.87-1.87,9.45,9.45,0,0,1-7.2-3,41.16,41.16,0,0,1,6.41.21V43.85h-8.64v-1.3h7V40.89c-.36.22-2.73.22-7,.22v-1.3h8.14V38.52h-5.77a3.15,3.15,0,0,1,1.88-1.66l-1.88-.72h6.84V34.48h-5.32C271,33,272.3,32,273.24,31.89l-2-1.29a11.4,11.4,0,0,1-3,2.95c.58.36.94.5,1.08.93h-1.8c0-2.59.15-4.1.5-4.24l-2.37-.36a20.58,20.58,0,0,1,.21,4.6h-2c0-2.8.14-4.1.36-4.24l-2-.36v4.6H260l1.3-.93a28,28,0,0,0-3.17-2.95l-1.3,1.08a16.89,16.89,0,0,1,2.81,2.8h-4.82v1.66h5.76l-.79.36a8.6,8.6,0,0,0,1.87,1.8H256v1.3c.5,0,3.31.21,8.06.21v1.3c-4.39,0-6.84-.22-7.34-.22v1.66H264v1.3h-8.49"/></g><path class="cls-5" d="M265.68,25.27c1.66.14,3.89,1.08,7,2.59a3.11,3.11,0,0,1,1.3-1.65,40.35,40.35,0,0,1-6.41-2.09c2.38,0,3.82,0,4,.22V17.13H257.76a39.46,39.46,0,0,1,0,7.21c.22-.22,1.51-.22,3.67-.22a23,23,0,0,1-6.77,2.09c.51.14.87.72,1.3,1.65a76.88,76.88,0,0,1,7.34-2.45L262,24.12h4.82l-1.15,1.15"/><path class="cls-5" d="M272.45,12h1.8V8.64c-.58.14-3.31.14-8.28.14-.22-.72-.36-1.44-.58-2.37a10.64,10.64,0,0,1-2.16.36,9.91,9.91,0,0,1,.72,2c-5.33,0-8.28,0-8.85-.14V12H257a5.06,5.06,0,0,1,0-1.87h15.48a8.18,8.18,0,0,1,0,1.87"/><path class="cls-5" d="M270.07,72.43c.36,0,1.08-.36,2.38-.72l-4.25-7.06a12.51,12.51,0,0,1-1.8,1.15,25.28,25.28,0,0,1,2,3.32l-8.85.5a44,44,0,0,0,5-7.12c0-.22.58-.58,1.29-1.3l-2.73-1.08c-2,5.11-4.25,8.42-6.48,9.5l.57,2.24a65.49,65.49,0,0,1,12.17-1.09,5.29,5.29,0,0,1,.72,1.66"/><path class="cls-3" d="M206.5,67v.36a.86.86,0,0,0,.36.14h.43c.14.22.5.22.72.22a5,5,0,0,0,1.44.14,9.72,9.72,0,0,0,2-.14h1.88a2.82,2.82,0,0,1,1.07.14.45.45,0,0,1,.58,0,.49.49,0,0,1,.36.22c.22.21.22.36.36.36.22.21.22.21.22.36l.14.21a.7.7,0,0,1-.14.51l-.36,1.15-.22,1.08a4.42,4.42,0,0,1-.57.58c-.15.14-.37.14-.73.14a5.43,5.43,0,0,1-1.79.21c-.58,0-1.3-.21-1.88-.21a1.23,1.23,0,0,1-.72-.14h-.57c-.36,0-.58,0-.72-.22a8,8,0,0,1-3-.5.85.85,0,0,0-.93.14,2.39,2.39,0,0,0-.36.72,3.14,3.14,0,0,0,.36,1.3,5,5,0,0,0,1.08,1.15A1,1,0,0,0,206,75c.15,0,.15-.14.36-.14a.51.51,0,0,1,.36-.22h.58a4.31,4.31,0,0,1,1.66-.21h3.31l1.65.21H215l.36.36a.66.66,0,0,1,.22.58c0,.5.14.94.14,1.44v1.87c-.14,0-.14,0-.14.14v2.81a1.5,1.5,0,0,0,.14.87v.43h.22a.69.69,0,0,0,.14.5v.22a1.06,1.06,0,0,0,.94.5,1.17,1.17,0,0,0,.72-.72s0-.14.22-.36v-.72a.47.47,0,0,0-.22-.36c0-.21,0-.58.22-.72V80.21c0-.22,0-.36-.22-.36a4.5,4.5,0,0,0,.22-1.66V76.68c.14,0,.14-.14.14-.36a.9.9,0,0,0-.14-.58V70.05a10.94,10.94,0,0,1,.57-3.67V65.09a1.21,1.21,0,0,0-.22-.72v-.94a2.73,2.73,0,0,1,.22-1.3c0-.14.14-.36.14-.5s.22-.43.22-.79a.53.53,0,0,0-.22-.5c0-.22-.14-.37-.57-.37h-.87c-.21-.21-.36-.21-.79-.21a.53.53,0,0,0-.5-.22,2.29,2.29,0,0,1-.58-.36c-.36,0-.72-.14-1.08-.14a4.51,4.51,0,0,0-1.29.14c-.58,0-1.16-.14-1.66-.14s-.72-.22-1.15-.22a3,3,0,0,1-.72-.5c-.15-.43-.36-.58-.15-.94,0-.21.15-.21.15-.36.21-.22.21-.36,0-.57a2.1,2.1,0,0,1,.93-1.3,2.51,2.51,0,0,1,1.08-.36h3.17a1.23,1.23,0,0,0,.72.22h.36c.22.14.36,0,.58,0s.72.14,1.08.14h.72c0,.22.21,0,.43,0a.73.73,0,0,0,.5-.36,1.14,1.14,0,0,0,.58-.93c-.22-.15-.36-.36-.58-.51s-.72-.22-1.07-.22a1.35,1.35,0,0,0-.94-.21h-2.74c-.93,0-1.87.21-2.81.21-.35.22-.72.22-.86,0-.22,0-.43-.21-.58-.36-.57-.21-1.29-.57-1.87-.72a5,5,0,0,0-2.16-.57c0-.22-.21-.22-.43-.22l-.15.22a.21.21,0,0,0-.21.22c0,.14,0,.14.21.35a1.38,1.38,0,0,1,.37.87c.21.21.21.43.36.58a2.26,2.26,0,0,1,.36.93,2.65,2.65,0,0,1,0,1.8,48.26,48.26,0,0,1,.21,5.4c0,1.8-.21,3.67-.21,5.33"/><g class="cls-8"><path class="cls-5" d="M271.15,92.09c0,.5-.94.5-2.81.36a3.12,3.12,0,0,1,.72,2c2.81.15,4.11-.57,4.11-2V75.89H257.69v1.8c.93,0,5.33-.15,13.46-.15V92.09"/></g><path class="cls-3" d="M221.26,25.2l1.65-.36,1.66-.22h.79a.14.14,0,0,1,.14-.14h.72l1.51.14,1.45.22c.36,0,.57.21.93.21s.72-.21,1.08-.21h2.24a1.86,1.86,0,0,0,.93-.36c0-.22.14-.22.14-.22a.56.56,0,0,1,.44-.14s.14,0,.14-.22c.22,0,.22-.14.22-.36a4.25,4.25,0,0,0-.22-1.65,5.84,5.84,0,0,0-.72-2.24,1,1,0,0,0-.22-.72c-.14-.14-.35-.36-.5-.36a6.74,6.74,0,0,1-.94-.57,4.46,4.46,0,0,0-1.29-.36c-.22-.14-.36-.36-.58-.36-.14-.15-.5-.15-.72-.15v.15l-1.44-.51-1.87-.43a2.87,2.87,0,0,1-1.08-.14c-.22-.22-.36-.22-.36-.36h-.93a1.28,1.28,0,0,1-.94-.22.78.78,0,0,1-.72-.36.67.67,0,0,0-.72,0,.66.66,0,0,0-.22.58c0,.14.22.36.36.5s.22.43.36.58a1.7,1.7,0,0,1,.22.94,1.88,1.88,0,0,1-.36,1.43l-.94,1.51a31,31,0,0,0-1.87,3.32c0,.36.22.5.36.93a1.62,1.62,0,0,0,1.3.15"/><g class="cls-9"><path class="cls-5" d="M12.6,94.61h3.89V87.19l4.24,7.42h7V85.18h-4v7.34l-4.25-7.34H12.6v9.43"/></g><g class="cls-10"><path class="cls-5" d="M178,94.61a23.05,23.05,0,0,0,3.1-.22c1.65-.36,2.81-.94,3.17-2.23a4.74,4.74,0,0,0,.36-2.38c0-2-.22-3-1.51-3.89S180,85,177.41,85c-2.23,0-3.31.15-3.46.15-1.87.36-2.95,1.15-3.31,2.23a10.9,10.9,0,0,0-.21,2.37,11.07,11.07,0,0,0,.21,2.38c.36,1.29,1.44,1.87,3.31,2.23a29.62,29.62,0,0,0,4,.22"/></g><path class="cls-5" d="M269.86,82.08V80.21h-14v1.87c4.61-.22,9.43-.22,14,0"/><g class="cls-11"><path class="cls-5" d="M164.3,90.86v.43c0,.73-.5,1.09-2.37,1.09-2,0-2.23-.36-2.38-1.09a6.87,6.87,0,0,1-.21-2.08v-.36c0-1.3.79-1.66,2.59-1.66s2.59.58,2.37,1.29h4.11v-.36c0-.93-.22-1.29-.43-1.43-.51-.8-1.23-1.3-4-1.66h-2.16c-3.39,0-4.61.51-5.41,1.08-.5.36-1.29,1.3-1.29,3.53,0,3.81,1.29,5,6.48,5,3.09,0,5.54-.22,6.41-1.52a5.34,5.34,0,0,0,.43-2.23H164.3"/></g><g class="cls-12"><path class="cls-5" d="M69.77,94.61h4V92.16h3.89c2.23,0,3.52-.51,4-1.08a3.48,3.48,0,0,0,.79-2.23c0-2-.79-2.52-1.51-3a7.26,7.26,0,0,0-3.31-.71H69.77v9.43"/></g><g class="cls-13"><path class="cls-5" d="M54.86,94.61h4V92.16h3c1.29,0,1.87.36,1.87,1.15v1.3h3.89V93.09A1.54,1.54,0,0,0,67,91.65a4.27,4.27,0,0,0-2.23-.57c1.51-.22,2.23-.58,2.59-1.08.22-.22.36-.58.36-1.66a2.57,2.57,0,0,0-1.08-2.45c-.58-.35-1.51-.71-4-.71H54.86v9.43"/></g><g class="cls-14"><path class="cls-5" d="M132.62,91.44a1.3,1.3,0,0,0,.22.94c.36,1.8,2.16,2.23,6,2.23a14.91,14.91,0,0,0,5.18-.58,2.38,2.38,0,0,0,1.44-2.38c0-1.87-1.08-2.59-4-2.8l-2.95-.15c-.94,0-2,0-2-.72s.36-.93,2.23-.93c1.44,0,1.8,0,1.8.14.36.22.73.36.58.93H145c0-1.65-.58-2.23-1.3-2.58-.57-.15-1.15-.51-4.6-.51-4.83,0-6.49.36-6.49,3.09,0,2,1.88,2.38,4.25,2.6h2.74c.93,0,1.87.14,1.87.93,0,.51-.36.87-2.23.87-2,0-2.16,0-2.38-.14s-.36-.36-.36-.94h-3.89"/></g><g class="cls-15"><path class="cls-5" d="M104.47,91.44a1.3,1.3,0,0,0,.22.94c.36,1.8,2.16,2.23,6,2.23a15,15,0,0,0,5.19-.58,2.38,2.38,0,0,0,1.44-2.38c0-1.87-1.08-2.59-4-2.8l-3-.15c-.94,0-1.88,0-1.88-.72s.22-.93,2-.93c1.51,0,1.87,0,1.87.14.36.22.72.36.58.93h3.82c0-1.65-.51-2.23-1.23-2.58C115,85.39,114.41,85,111,85c-4.82,0-6.48.36-6.48,3.09,0,2,1.87,2.38,4.25,2.6h3c.72,0,1.66.14,1.66.93,0,.51-.22.87-2.23.87s-2.24,0-2.38-.14-.36-.36-.36-.94h-3.89"/></g><g class="cls-16"><path class="cls-5" d="M83.52,94.61h4V92.16h3c1.3,0,1.88.36,1.88,1.15v1.3h3.81V93.09c0-.93-.14-1.07-.5-1.44a4.75,4.75,0,0,0-2.23-.57A3.84,3.84,0,0,0,96.05,90a2.7,2.7,0,0,0,.36-1.66,2.61,2.61,0,0,0-1.15-2.45c-.51-.35-1.44-.71-4-.71h-7.7v9.43"/></g><path class="cls-3" d="M208.37,48c.22.36.36.72.58.72a.73.73,0,0,0,.93,0A1.74,1.74,0,0,0,211,47.8a2.44,2.44,0,0,0,.72-1.29V46s.21-.22.21-.37V44.5c0-.15.15-.51.15-.73v-.93a.53.53,0,0,1-.15-.36v-.36c0-.36,0-.58.15-.72V39.89a3.46,3.46,0,0,1-.15-1.23,1.89,1.89,0,0,1,0-1.51,7.79,7.79,0,0,1-.21-2.23,12.37,12.37,0,0,1,.21-2.74v-.72c0-.21-.21-.36-.21-.57a.71.71,0,0,1-.14-.51.82.82,0,0,1,.14-.58c0-.57.21-1.07.21-1.51V26.86c0-.22-.21-.36-.21-.73l-.14-.21a.28.28,0,0,1,0-.51.4.4,0,0,1,.35-.43v-.72c0-.36,0-.5-.21-.72V23a.86.86,0,0,0-.14-.35,1.76,1.76,0,0,1,.14-.72.38.38,0,0,1,.36-.36,6.1,6.1,0,0,1,.94-1.08c.21-.43.36-.8.72-.94a1.49,1.49,0,0,1,.79-.72c.14-.22.36-.22.5-.43a.85.85,0,0,0,.58-.15c0-.21.22-.21.36-.35l.57-.58c.15-.15.15-.36.36-.58s.36-.36.15-.5c0-.22-.15-.22-.36-.22a6.9,6.9,0,0,1-2.16.94h-.58a5.09,5.09,0,0,1-1.44.72,4.48,4.48,0,0,1-1.65.22,3.88,3.88,0,0,0-1.3.14,8.68,8.68,0,0,0-2.81.93,2.08,2.08,0,0,0-1.08.94,1.63,1.63,0,0,0,0,1.44,2.36,2.36,0,0,0,.36,1.3,8,8,0,0,0,.72,1.15c.22.14.36.36.58.36a4.15,4.15,0,0,0,.57.5,3.32,3.32,0,0,1,.73.58,2.16,2.16,0,0,1,.14.93v.94l.22.72a.53.53,0,0,0-.22.5v1.16a3.14,3.14,0,0,0,.22,1.29v3.67a3.21,3.21,0,0,0,0,1.45V37a4.85,4.85,0,0,0,.21.86c0,.58-.21,1.15-.21,1.51a17.83,17.83,0,0,0-.36,2v1.3a5.73,5.73,0,0,1-.22,1.8v2.59c.22,0,.22.21.22.36s-.22.35-.22.57"/><g class="cls-17"><path class="cls-5" d="M32.54,94.61h4.11v-7.2h3.81V85.18H28.73v2.23h3.81v7.2"/></g><g class="cls-18"><path class="cls-5" d="M0,94.61H10.87V92.38H4V90.72H10.3V88.85H4V87.19h6.84v-2H0v9.43"/></g><g class="cls-19"><path class="cls-5" d="M119.3,94.61h10.88V92.38h-6.84V90.72h6.26V88.85h-6.26V87.19h6.84v-2H119.3v9.43"/></g><g class="cls-20"><path class="cls-5" d="M41.83,94.61H52.7V92.38H45.86V90.72h6.27V88.85H45.86V87.19H52.7v-2H41.83v9.43"/></g><path class="cls-4" d="M269.93,18.21v.94H259.56v-.94h10.37"/><path class="cls-4" d="M269.93,20v1.07H259.56V20h10.37"/><path class="cls-4" d="M259.56,23V22.1h10.37V23H259.56"/><path class="cls-5" d="M255.67,64.22c2-2,4.25-5.33,7.2-9.93.15-.15-.79-.51-2.59-1.08-1.51,4.39-3.89,7.91-6.84,9.93a6.54,6.54,0,0,1,2.23,1.08"/><g class="cls-21"><path class="cls-5" d="M273.38,64.22a6.62,6.62,0,0,1,2.16-1.65A14.61,14.61,0,0,1,268,53.21l-2,.36a24,24,0,0,0,7.41,10.65"/></g><path class="cls-5" d="M260.57,92.23V90h5.9v1.44h1.8V84H258.7v8.28h1.87"/><path class="cls-4" d="M225.65,22.68c-.15,0-.58,0-.72-.22s-.22-.36-.22-.57v-.15a.58.58,0,0,0-.14-.36.65.65,0,0,1-.22-.58l.36-.35c.22,0,.22-.22.22-.36a.45.45,0,0,0,0-.58c0-.14,0-.36.14-.36a.67.67,0,0,1,.43-.22h4c.14,0,.14.22.35.22l.37.36a1,1,0,0,1,.72.36c.21,0,.21.22.36.22.43.14.57.5.93.71a.88.88,0,0,1,.22.94c0,.36-.22.51-.58.72-.14.22-.36.22-.57.36,0,0-.15,0-.36.22h-.15a.64.64,0,0,1-.57-.22H229c-.14.22-.36.22-.72.22s-.58,0-.72-.22c-.22,0-.22,0-.36-.14h-1.51"/><path class="cls-4" d="M209.23,64.58v-.94a3.91,3.91,0,0,1-.14-.71v-.72c.14-.36.14-.58.36-.73a1.15,1.15,0,0,1,.72-.36,2.38,2.38,0,0,0,.94.15h2a.68.68,0,0,1,.58.21h.86a3.76,3.76,0,0,1,.94.37h.36c.21.14.21.14.21.36v.21l.14.15.22.21v.51a.21.21,0,0,1-.22.21c0,.14-.14.14-.14.36v.58c0,.14-.21.36-.21.5s-.15.36-.15.58c-.21,0-.21.21-.36.21s-.21.15-.36.15h-.58a2,2,0,0,1-.93-.15h-2.95c-.15-.21-.36-.21-.51-.43-.21,0-.43-.14-.79-.14l-.14-.22c0-.14,0-.14.14-.36"/><path class="cls-4" d="M226.66,58.82a4.46,4.46,0,0,1-.15-1.44c0-.36.15-.72.15-1.08a1.55,1.55,0,0,1,.72-.79h.93l.36.22.94.14c0,.22.21.22.57.22h1.3a.89.89,0,0,0,.36.36c.14,0,.14.21.36.21,0,.14,0,.14.14.36,0,0,0,.15.22.15a.39.39,0,0,1-.36.36,1,1,0,0,1-.58.93,5.71,5.71,0,0,1-.93,1.15c0,.15-.15.15-.36.15,0,.21-.15.21-.15.21a1.52,1.52,0,0,0-.93-.21h-.94c-.14.21-.36.21-.58.21a2.06,2.06,0,0,1-.71-.36,4.43,4.43,0,0,0-.36-.43.27.27,0,0,1,0-.36"/><path class="cls-4" d="M267.7,35.86A17.68,17.68,0,0,1,266,38.09h-3.17c0-.22.22-.22.58-.44-.72-.5-1.44-1.22-2.24-1.79h6.49"/><path class="cls-4" d="M177.62,92.45c-3,0-3-.51-3-2.74,0-1.66.44-1.87.58-2s.72-.58,2.37-.58c2.09,0,2.45.36,2.81.93v3.46c-.36.58-.72.94-2.81.94"/><path class="cls-4" d="M225.94,64.08c.21,0,.21-.22.21-.36s0-.22-.21-.43v-.51c0-.21.21-.36.21-.57.15-.15.36-.15.72-.15h.22a.54.54,0,0,0,.5-.21c0,.21,0,.21.22.21H228a.49.49,0,0,0,.36-.21c.22,0,.58,0,.58.21.22,0,.36.15.72.15h1.29c.22.21.37.21.37.36.21.36.43.57.43.93v.94c0,.14,0,.36-.22.36,0,.14-.21.14-.21.14-.15,0-.37.22-.37.22h-.5a1.11,1.11,0,0,0-.79-.22h-.72a1.23,1.23,0,0,1-.72.22c-.22,0-.58,0-.72-.22a1.26,1.26,0,0,1-.79-.36c-.36,0-.51-.14-.72-.5"/><path class="cls-4" d="M260.43,88.63V85.54h5.9v3.09h-5.9"/><path class="cls-4" d="M226.15,69.48V68.33l-.21-.87a.66.66,0,0,1,.21-.57c.15-.22.51-.22.72-.22.58,0,1.08.22,1.87.22H230a.6.6,0,0,1,.57.21.34.34,0,0,1,.36.36V68c0,.37.22.8.22,1.16a.66.66,0,0,1,.15.5,2.68,2.68,0,0,1-.37.58l-.14.21a1.51,1.51,0,0,1-.79.15c-.51,0-1.08-.15-1.66-.15s-1.08-.21-1.65-.21a.89.89,0,0,0-.36-.36.89.89,0,0,1-.15-.36"/><path class="cls-4" d="M226.15,73.58c-.21-.14-.21-.36-.21-.72a1.14,1.14,0,0,1,.21-.72l.15-.21c.21-.15.21-.15.36-.15h.57a.54.54,0,0,1,.36.15,1.55,1.55,0,0,1,.94.21h1.29c.15-.21.36,0,.58,0,0,.15.14.15.14.36a.73.73,0,0,0,.22.58c0,.36,0,.5-.22.72v.72a.74.74,0,0,1-.57.36,4.57,4.57,0,0,1-1.8.36,3,3,0,0,1-1.3-.36.81.81,0,0,1-.72-.36c0-.22-.21-.58,0-.94"/><path class="cls-4" d="M87.55,89.93V87.12h3c1.23,0,1.8.36,1.8,1.51,0,.87-.57,1.3-1.8,1.3h-3"/><path class="cls-4" d="M59,89.93V87.34h3.09c1.15,0,1.66.14,1.66,1.29s-.51,1.3-1.66,1.3H59"/><path class="cls-4" d="M74.09,89.93V87.12h2.59a3.25,3.25,0,0,1,1.44.36,1.54,1.54,0,0,1,.36,1.15c0,.87-.58,1.3-1.8,1.3H74.09"/><path class="cls-4" d="M259.56,13V11.88h4.25V13h-4.25"/><path class="cls-4" d="M265.25,15.26v-.93h4.46v.93h-4.46"/><path class="cls-4" d="M265.25,13V11.88h4.46V13h-4.46"/><g class="cls-22"><path class="cls-5" d="M98.28,94.61h4V85.18h-4v9.43"/></g><path class="cls-4" d="M259.56,15.26v-.93h4.1v.93h-4.1"/><path class="cls-4" d="M63.36,20.38A2,2,0,0,1,66,20.23a2.32,2.32,0,0,1,.72,1.44V59a1.81,1.81,0,0,1-2,1.87,1.12,1.12,0,0,1-1.09-.79l-.21-39.74"/><path class="cls-4" d="M112.61,20.23a1.72,1.72,0,0,1,1.66-1.66,1.52,1.52,0,0,1,1.79,1.66V32.69h-3.45V20.23"/><path class="cls-4" d="M177.05,20.38a2.22,2.22,0,0,1,1.65-2,1.89,1.89,0,0,1,1.87,2l.22,12.31h-3.74V20.38"/><g class="cls-23"><path class="cls-5" d="M187.05,94.61h3.1V92.38h-3.1v2.23"/></g></g></g></g></svg>