<svg xmlns="http://www.w3.org/2000/svg" viewBox="0 0 263.3 62.64"><defs><style>.cls-1{fill:#005484;}.cls-2{fill:#a8cf45;}.cls-3{fill:#f8a060;}</style></defs><g id="Layer_2" data-name="Layer 2"><g id="Layer_1-2" data-name="Layer 1"><g id="Layer_1-3" data-name="Layer_1"><path class="cls-1" d="M252.94,38.38V26.93a6,6,0,0,0-1.88-1.59,5.87,5.87,0,0,0-2.88-.64,5.19,5.19,0,0,0-4.1,1.8c-1.08,1.22-1.58,3.16-1.58,6A8.45,8.45,0,0,0,244,37.73a4.87,4.87,0,0,0,4.25,2,7.87,7.87,0,0,0,2.88-.5A4.79,4.79,0,0,0,252.94,38.38ZM263.3,42l-5.9,4.89a5.74,5.74,0,0,1-2.3-1.37,4.22,4.22,0,0,1-1.37-2.23l-4.61,2.67c-.14.07-.43.14-.86.28a6.59,6.59,0,0,1-1.16.15,11.66,11.66,0,0,1-8.71-3.6q-3.45-3.68-3.45-10.15a14.17,14.17,0,0,1,3.6-10.08,11.67,11.67,0,0,1,9.14-4,9.9,9.9,0,0,1,4.1.87,7.77,7.77,0,0,1,2.6,1.58l4.24-1.58,1.52.43V36.5a6.88,6.88,0,0,0,.72,3.53A4.51,4.51,0,0,0,263.3,42Z"/><path class="cls-1" d="M29.52,16.49C28.87,11.66,23.62,7.2,14.26,5a35,35,0,0,0-5.4,4.46c8.42.87,18.28,4,19.72,10.66C29.16,22.61,29.3,35,61.2,22a40.5,40.5,0,0,0-2.09-5.11C47.52,22,30.82,26.64,29.52,16.49Z"/><path class="cls-1" d="M29.52,25.49c-.79-6.12-9-11.67-23.4-12.82a29.5,29.5,0,0,0-3.24,5.4c8.86-.14,23.83,2.59,25.7,11,.58,2.59.72,15.26,34,1.29a25.88,25.88,0,0,0-.72-5.76C50.47,30.1,31,36.43,29.52,25.49Z"/><path class="cls-1" d="M29.52,34.56c-.86-6.7-10.73-12.74-28-13A31.75,31.75,0,0,0,.22,27.36c8.06-.86,26.28,1.51,28.36,10.8.58,2.52.72,14.9,32.84,1.8a35.14,35.14,0,0,0,1.15-6.7C51.26,39,31,45.79,29.52,34.56Z"/><path class="cls-2" d="M29.52,43.7c-.94-6.91-11.3-13.1-29.52-13v.58a38.9,38.9,0,0,0,.36,5.11c8.21-.79,26.21,1.66,28.22,10.8.51,2.38.72,13.32,26.79,4.11a31.81,31.81,0,0,0,4.75-7.78C48.6,48.89,30.89,54.07,29.52,43.7Z"/><path class="cls-2" d="M29.52,52.63c-.94-6.77-10.87-12.81-28.44-13a38.4,38.4,0,0,0,2.16,5.62c8.93-.15,23.54,2.66,25.34,10.94.22,1.15.44,4.47,3.82,6.41a31.9,31.9,0,0,0,17.5-6.12C40.25,59.54,30.53,60.26,29.52,52.63Z"/><path class="cls-2" d="M5.4,49a31,31,0,0,0,5.26,5.9c6.62.94,13.6,3.24,16.63,7.49a12.67,12.67,0,0,0,2.37.22,2.71,2.71,0,0,1-.14-.79C28.66,55.51,20.3,50,5.4,49Z"/><path class="cls-2" d="M28.58,11.16c.51,2.38.72,13.9,29.09,3.24a29.83,29.83,0,0,0-3.45-4.46c-10.88,4.1-23.55,6.4-24.7-2.38A10.53,10.53,0,0,0,24.91.65a31.1,31.1,0,0,0-6.19,1.94C23.69,4.32,27.65,7.06,28.58,11.16Z"/><path class="cls-2" d="M51.55,7.42a31.52,31.52,0,0,0-5.83-4C38.3,5.18,31.61,5,29.88,0c-.65.07-1.3.07-1.94.14A8.51,8.51,0,0,1,28.58,2C29.09,4.25,29.23,14.26,51.55,7.42Z"/><path class="cls-3" d="M54.22,9.94a29.83,29.83,0,0,1,3.45,4.46Z"/><path class="cls-3" d="M45.72,3.46a31.52,31.52,0,0,1,5.83,4Z"/><polygon class="cls-1" points="101.66 21.96 89.28 46.08 83.38 46.08 71.71 21.96 78.48 18.79 86.62 36.72 95.33 18.79 101.66 21.96"/><path class="cls-1" d="M122.54,30.53a7.61,7.61,0,0,0-2.3-4.47,6,6,0,0,0-4.18-1.51,5.47,5.47,0,0,0-4.39,1.66,7.42,7.42,0,0,0-1.8,4.32Zm6.84,3.53H109.94a7.36,7.36,0,0,0,2.52,4.6,7.68,7.68,0,0,0,4.68,1.44,20.87,20.87,0,0,0,4.83-.64,14.38,14.38,0,0,0,4.17-1.66v6.62A11.69,11.69,0,0,1,121.82,46a23,23,0,0,1-4.68.65c-4.6,0-8.2-1.3-10.87-3.82s-3.89-5.9-3.89-10.15a13.81,13.81,0,0,1,4-10.37,13.45,13.45,0,0,1,9.93-4,11.81,11.81,0,0,1,9.51,4.18C128.23,25.34,129.38,29.23,129.38,34.06Z"/><path class="cls-1" d="M150,38V26.42a5,5,0,0,0-2-1.29,7.48,7.48,0,0,0-3.1-.58,5.53,5.53,0,0,0-4.53,1.8c-1,1.15-1.51,3.1-1.51,5.69s.57,4.68,1.65,6a5,5,0,0,0,4.25,2,8.24,8.24,0,0,0,3.1-.57A8.56,8.56,0,0,0,150,38Zm7.34,8.06h-5.76l-1.51-2.38-4,2.16a4.36,4.36,0,0,1-1.44.36,12.74,12.74,0,0,1-1.59.15c-3.81,0-6.76-1.3-8.78-3.89a16.27,16.27,0,0,1-3-9.72c0-4.25,1.22-7.63,3.6-10.15a12.67,12.67,0,0,1,9.57-3.75,13.09,13.09,0,0,1,3,.29,9.36,9.36,0,0,1,2.52.94V8.57h7.34Z"/><path class="cls-1" d="M178.78,38.38V26.93a6,6,0,0,0-1.88-1.59A5.87,5.87,0,0,0,174,24.7a5.19,5.19,0,0,0-4.1,1.8c-1.08,1.22-1.58,3.16-1.58,6a8.45,8.45,0,0,0,1.51,5.26,4.82,4.82,0,0,0,4.17,2,8,8,0,0,0,3-.5A4.79,4.79,0,0,0,178.78,38.38ZM189.14,42l-5.9,4.89a5.74,5.74,0,0,1-2.3-1.37,4.22,4.22,0,0,1-1.37-2.23L175,45.94c-.14.07-.43.14-.86.28a7.52,7.52,0,0,1-1.16.15,11.66,11.66,0,0,1-8.71-3.6q-3.45-3.68-3.45-10.15a14.48,14.48,0,0,1,3.52-10.08,12,12,0,0,1,9.22-4,9.9,9.9,0,0,1,4.1.87,7.77,7.77,0,0,1,2.6,1.58l4.24-1.58,1.52.43V36.5A6.88,6.88,0,0,0,186.7,40,4.51,4.51,0,0,0,189.14,42Z"/><path class="cls-1" d="M217,46.08h-7.49V29.66a4,4,0,0,0-1-2.59A4.22,4.22,0,0,0,205.34,26a6.2,6.2,0,0,0-3.38.87,22.35,22.35,0,0,0-2.16,1.51V46.08h-7.49V19.8l7.49-.5v2.59l3.1-1.8a10.46,10.46,0,0,1,2.88-1.15,12.83,12.83,0,0,1,2.88-.36A7.85,7.85,0,0,1,214.78,21,8.77,8.77,0,0,1,217,27.36Z"/><path class="cls-1" d="M234,41.54l-5.47,5.12a10.69,10.69,0,0,1-5-4.11,11.67,11.67,0,0,1-1.66-6.41V24.62h-2.52V19.8h2.52V11.23l7.49-.57V19.8h3.82v4.82h-3.82v9.44a8,8,0,0,0,1.22,4.68A8.31,8.31,0,0,0,234,41.54Z"/></g></g></g></svg>