<svg xmlns="http://www.w3.org/2000/svg" xmlns:xlink="http://www.w3.org/1999/xlink" viewBox="0 0 580.58 358.59"><defs><style>.cls-1{fill:none;}.cls-2{clip-path:url(#clip-path);}.cls-3{fill:#00639f;}.cls-3,.cls-4{fill-rule:evenodd;}.cls-4{fill:#e30016;}</style><clipPath id="clip-path" transform="translate(-0.01 0.1)"><rect class="cls-1" width="580.5" height="359"/></clipPath></defs><g id="Layer_2" data-name="Layer 2"><g id="Layer_1-2" data-name="Layer 1"><g id="surface1"><g class="cls-2"><path class="cls-3" d="M0-.1V228.07a136.55,136.55,0,0,0,8.18,44.29,132,132,0,0,0,35.45,52.19Q78,354.23,120.31,357.82q40.56,3,75.25-15.68a132.29,132.29,0,0,0,55.66-59q13.79-27.56,12.83-70.29,0-54,.05-108h52.75q-.11,126.81-.2,253.61h105.7V105.08H475.1V358.5H580.59V-.1H158.21q.09,112.88.19,225.76Q157.92,242.33,144,250q-16.78,7-29.83-4.12-7.92-7.23-8.59-19.42V173.15l.06-100.61V-.1H0Zm528,1A51.38,51.38,0,1,1,476.3,52.3,51.56,51.56,0,0,1,528,.93Z" transform="translate(-0.01 0.1)"/></g><path class="cls-4" d="M527.93,10.31a42.15,42.15,0,1,1-42.14,42.15A42.14,42.14,0,0,1,527.93,10.31Z" transform="translate(-0.01 0.1)"/></g></g></g></svg>