<svg xmlns="http://www.w3.org/2000/svg" xmlns:xlink="http://www.w3.org/1999/xlink" viewBox="0 0 80 80" fill="#F07D29">
  <path d="M39.390625 10C36.855469 10 34.679688 11.410156 33.117188 12.738281C31.554688 14.066406 30.558594 15.402344 30.558594 15.402344L29.699219 16.550781L31.078125 16.957031C31.078125 16.957031 31.203125 16.984375 31.429688 17.21875C31.65625 17.449219 31.933594 17.839844 31.933594 18.761719C31.933594 20.324219 32.167969 21.136719 32.253906 21.496094C31.992188 21.808594 31.800781 22.179688 31.800781 22.625C31.800781 23.085938 31.910156 23.339844 31.988281 23.609375C32.03125 23.742188 32.066406 23.863281 32.089844 23.941406C32.109375 24.023438 32.097656 24.117188 32.097656 23.921875C32.097656 24.703125 32.691406 25.246094 33.398438 25.457031C33.578125 27.203125 34.390625 28.710938 35.640625 29.800781L35.640625 31.125C35.203125 31.257813 34.710938 31.386719 33.554688 31.84375C32.207031 32.375 30.664063 33.132813 29.363281 34.082031C27.75 32.953125 26.433594 32.265625 25.800781 31.980469L25.800781 30.800781C26.835938 29.816406 27.503906 28.484375 27.65625 26.953125C28.265625 26.707031 28.75 26.210938 28.75 25.535156C28.75 25.722656 28.738281 25.636719 28.757813 25.566406C28.777344 25.5 28.808594 25.390625 28.839844 25.269531C28.90625 25.03125 29 24.800781 29 24.378906C29 23.988281 28.847656 23.648438 28.628906 23.355469C28.699219 22.941406 29 21.21875 29 19.75C29 18.089844 28.402344 16.8125 27.558594 16.015625C26.878906 15.375 26.09375 15.101563 25.34375 14.996094C25.199219 14.742188 25.167969 14.582031 24.769531 14.214844C24.105469 13.601563 23 13 21.488281 13C19.285156 13 17.445313 14.296875 16.128906 15.496094C14.816406 16.691406 13.980469 17.890625 13.980469 17.890625L13.203125 19.007813L14.5 19.417969C14.5 19.417969 14.546875 19.417969 14.714844 19.601563C14.882813 19.785156 15.109375 20.117188 15.109375 20.929688C15.109375 22.3125 15.300781 23.015625 15.375 23.355469C15.160156 23.648438 15 23.988281 15 24.378906C15 24.804688 15.09375 25.03125 15.160156 25.269531C15.191406 25.390625 15.222656 25.5 15.242188 25.570313C15.261719 25.640625 15.25 25.726563 15.25 25.535156C15.25 26.214844 15.734375 26.707031 16.34375 26.953125C16.496094 28.484375 17.164063 29.816406 18.199219 30.800781L18.199219 31.9375C17.679688 32.101563 16.6875 32.386719 15.148438 33.164063C14.199219 33.644531 13.234375 34.222656 12.449219 34.949219C11.839844 35.507813 11.3125 36.1875 11.097656 37L10 37L10 70L70 70L70 37L68.902344 37C68.6875 36.1875 68.160156 35.503906 67.550781 34.945313C66.765625 34.222656 65.800781 33.640625 64.851563 33.160156C63.3125 32.382813 62.320313 32.101563 61.800781 31.9375L61.800781 30.800781C62.835938 29.816406 63.503906 28.484375 63.65625 26.953125C64.265625 26.707031 64.75 26.210938 64.75 25.535156C64.75 25.722656 64.738281 25.636719 64.757813 25.566406C64.777344 25.496094 64.808594 25.390625 64.839844 25.269531C64.90625 25.03125 65 24.800781 65 24.378906C65 23.988281 64.847656 23.644531 64.628906 23.351563C64.699219 22.9375 65 21.21875 65 19.75C65 18.089844 64.402344 16.8125 63.558594 16.015625C62.878906 15.375 62.09375 15.101563 61.34375 14.996094C61.199219 14.742188 61.171875 14.582031 60.769531 14.210938C60.105469 13.597656 59 13 57.488281 13C55.285156 13 53.445313 14.292969 52.128906 15.492188C50.816406 16.691406 49.980469 17.890625 49.980469 17.890625L49.203125 19.003906L50.5 19.417969C50.5 19.417969 50.546875 19.417969 50.714844 19.601563C50.882813 19.785156 51.109375 20.117188 51.109375 20.929688C51.109375 22.3125 51.300781 23.015625 51.375 23.351563C51.160156 23.644531 51 23.984375 51 24.378906C51 24.800781 51.09375 25.03125 51.160156 25.269531C51.191406 25.390625 51.222656 25.5 51.242188 25.566406C51.261719 25.636719 51.25 25.722656 51.25 25.535156C51.25 26.210938 51.734375 26.707031 52.34375 26.953125C52.496094 28.484375 53.164063 29.816406 54.199219 30.800781L54.199219 31.980469C53.566406 32.265625 52.25 32.953125 50.636719 34.082031C49.335938 33.132813 47.792969 32.375 46.445313 31.84375C45.289063 31.386719 44.796875 31.257813 44.359375 31.125L44.359375 29.800781C45.609375 28.710938 46.421875 27.203125 46.601563 25.457031C47.308594 25.246094 47.902344 24.703125 47.902344 23.921875C47.902344 24.117188 47.890625 24.023438 47.910156 23.941406C47.933594 23.863281 47.96875 23.742188 48.011719 23.609375C48.089844 23.339844 48.199219 23.085938 48.199219 22.625C48.199219 22.179688 48.011719 21.8125 47.753906 21.5C47.832031 21.0625 48.199219 19.089844 48.199219 17.4375C48.199219 15.589844 47.488281 14.183594 46.507813 13.324219C45.6875 12.601563 44.75 12.308594 43.875 12.210938C43.710938 11.9375 43.65625 11.730469 43.160156 11.300781C42.394531 10.640625 41.136719 10 39.390625 10 Z M 39.390625 12C40.667969 12 41.394531 12.421875 41.855469 12.816406C42.316406 13.214844 42.449219 13.527344 42.449219 13.527344L42.710938 14.121094L43.359375 14.121094C43.871094 14.121094 44.625 14.328125 45.1875 14.824219C45.75 15.320313 46.199219 16.070313 46.199219 17.4375C46.199219 18.867188 45.742188 21.53125 45.738281 21.5625C45.730469 21.597656 45.726563 21.628906 45.722656 21.640625C45.71875 21.675781 45.71875 21.703125 45.714844 21.738281L45.625 22.445313L46.175781 22.71875C46.164063 22.75 46.144531 22.855469 46.089844 23.046875C46.054688 23.167969 46.015625 23.292969 45.984375 23.421875C45.96875 23.476563 45.960938 23.582031 45.945313 23.640625L44.761719 23.640625L44.761719 24.816406C44.761719 26.40625 43.976563 27.789063 42.773438 28.65625L42.359375 28.953125L42.359375 32.601563L43.09375 32.804688C43.09375 32.804688 44.25 33.128906 45.714844 33.703125C47.175781 34.277344 48.925781 35.128906 49.976563 36.027344L50.59375 36.550781L51.234375 36.058594C53.226563 34.53125 55.589844 33.53125 55.589844 33.53125L56.199219 33.273438L56.199219 30L55.8125 29.699219C54.851563 28.953125 54.199219 27.742188 54.199219 26.339844L54.199219 25.179688L53.195313 25.179688C53.1875 25.15625 53.1875 25.105469 53.179688 25.078125C53.152344 24.964844 53.121094 24.851563 53.089844 24.742188C53.050781 24.597656 53.042969 24.5625 53.03125 24.5L53.402344 24.296875L53.402344 23.480469L53.371094 23.359375C53.371094 23.359375 53.109375 22.347656 53.109375 20.929688C53.109375 19.742188 52.707031 18.882813 52.246094 18.339844C52.546875 17.957031 52.726563 17.65625 53.480469 16.96875C54.613281 15.9375 56.121094 15 57.488281 15C58.5 15 59.050781 15.347656 59.410156 15.683594C59.773438 16.015625 59.875 16.277344 59.875 16.277344L60.132813 16.890625L60.800781 16.890625C61.171875 16.890625 61.75 17.058594 62.1875 17.472656C62.625 17.886719 63 18.539063 63 19.75C63 21.023438 62.613281 23.441406 62.613281 23.441406C62.613281 23.449219 62.605469 23.476563 62.605469 23.484375C62.601563 23.523438 62.597656 23.554688 62.59375 23.59375L62.519531 24.269531L62.96875 24.503906C62.957031 24.566406 62.949219 24.597656 62.910156 24.738281C62.878906 24.847656 62.847656 24.960938 62.820313 25.078125C62.8125 25.101563 62.8125 25.152344 62.804688 25.175781L61.800781 25.175781L61.800781 26.335938C61.800781 27.742188 61.148438 28.953125 60.1875 29.699219L59.800781 29.996094L59.800781 33.355469L60.515625 33.566406C60.515625 33.566406 62.246094 34.085938 63.949219 34.945313C64.800781 35.375 65.632813 35.894531 66.199219 36.417969C66.421875 36.621094 66.582031 36.816406 66.707031 37L13.296875 37C13.421875 36.816406 13.578125 36.625 13.800781 36.417969C14.367188 35.898438 15.199219 35.378906 16.050781 34.949219C17.753906 34.085938 19.484375 33.566406 19.484375 33.566406L20.199219 33.355469L20.199219 30L19.8125 29.699219C18.851563 28.953125 18.199219 27.742188 18.199219 26.339844L18.199219 25.179688L17.195313 25.179688C17.1875 25.15625 17.1875 25.105469 17.179688 25.078125C17.152344 24.964844 17.121094 24.851563 17.089844 24.746094C17.050781 24.601563 17.042969 24.566406 17.03125 24.503906L17.402344 24.296875L17.402344 23.484375L17.371094 23.359375C17.371094 23.359375 17.109375 22.347656 17.109375 20.929688C17.109375 19.742188 16.707031 18.882813 16.246094 18.34375C16.546875 17.957031 16.726563 17.660156 17.480469 16.972656C18.613281 15.9375 20.121094 15 21.488281 15C22.5 15 23.050781 15.347656 23.410156 15.683594C23.773438 16.015625 23.875 16.28125 23.875 16.28125L24.132813 16.894531L24.800781 16.894531C25.171875 16.894531 25.75 17.058594 26.1875 17.472656C26.625 17.886719 27 18.539063 27 19.75C27 21.023438 26.613281 23.441406 26.613281 23.441406C26.613281 23.449219 26.605469 23.476563 26.605469 23.484375C26.601563 23.523438 26.597656 23.554688 26.59375 23.59375L26.519531 24.269531L26.96875 24.503906C26.957031 24.566406 26.949219 24.601563 26.910156 24.742188C26.878906 24.851563 26.847656 24.960938 26.820313 25.078125C26.8125 25.105469 26.8125 25.15625 26.804688 25.179688L25.800781 25.179688L25.800781 26.339844C25.800781 27.746094 25.148438 28.953125 24.1875 29.699219L23.800781 30L23.800781 33.273438L24.410156 33.53125C24.410156 33.53125 26.777344 34.53125 28.765625 36.058594L29.40625 36.550781L30.023438 36.027344C31.074219 35.128906 32.824219 34.277344 34.285156 33.703125C35.75 33.128906 36.90625 32.804688 36.90625 32.804688L37.640625 32.601563L37.640625 28.953125L37.226563 28.65625C36.023438 27.789063 35.238281 26.40625 35.238281 24.816406L35.238281 23.640625L34.054688 23.640625C34.039063 23.582031 34.03125 23.476563 34.015625 23.421875C33.984375 23.292969 33.945313 23.167969 33.910156 23.046875C33.855469 22.855469 33.839844 22.75 33.828125 22.71875L34.28125 22.480469L34.28125 21.625L34.246094 21.496094C34.246094 21.496094 33.933594 20.355469 33.933594 18.761719C33.933594 17.402344 33.429688 16.429688 32.878906 15.851563C33.234375 15.425781 33.476563 15.058594 34.414063 14.261719C35.792969 13.089844 37.632813 12 39.390625 12 Z M 46.496094 21.652344L46.65625 21.667969C46.667969 21.683594 46.71875 21.753906 46.71875 21.753906C46.71875 21.753906 46.675781 21.683594 46.667969 21.667969L46.796875 21.675781C46.78125 21.691406 46.71875 21.753906 46.71875 21.753906C46.71875 21.753906 46.789063 21.695313 46.808594 21.679688L46.875 21.6875C46.832031 21.707031 46.71875 21.753906 46.71875 21.753906C46.71875 21.757813 46.578125 21.691406 46.496094 21.652344 Z M 45.71875 21.761719L46.332031 21.8125C46.046875 21.859375 45.730469 21.902344 45.730469 21.90625C45.730469 21.90625 45.722656 21.839844 45.722656 21.824219C45.71875 21.785156 45.71875 21.769531 45.71875 21.761719 Z M 46.621094 21.839844L46.636719 21.839844C46.503906 21.972656 46.015625 22.46875 46.015625 22.46875L45.960938 22.40625C45.960938 22.40625 46.472656 21.96875 46.621094 21.839844 Z M 32.296875 21.84375C32.296875 21.855469 32.316406 22.023438 32.316406 22.023438L32.292969 21.851563 Z M 46.777344 21.855469L46.789063 21.855469C46.898438 22.003906 47.296875 22.574219 47.296875 22.574219L47.21875 22.625C47.21875 22.625 46.863281 22.007813 46.777344 21.855469 Z M 46.859375 21.859375L47.667969 21.933594L47.691406 21.980469C47.691406 21.984375 47.695313 21.980469 47.691406 21.984375C47.691406 21.996094 47.675781 22.042969 47.675781 22.042969C47.679688 22.039063 47.625 22.179688 47.625 22.175781L47.523438 22.347656C47.523438 22.347656 47.054688 22.003906 46.859375 21.859375 Z M 27.425781 23.511719L27.558594 23.519531C27.566406 23.535156 27.597656 23.605469 27.597656 23.605469C27.597656 23.605469 27.574219 23.535156 27.566406 23.519531L27.675781 23.53125C27.660156 23.542969 27.597656 23.605469 27.597656 23.605469C27.597656 23.605469 27.667969 23.546875 27.6875 23.53125L27.746094 23.535156C27.707031 23.554688 27.597656 23.605469 27.597656 23.605469C27.597656 23.605469 27.480469 23.539063 27.425781 23.511719 Z M 63.425781 23.511719L63.558594 23.519531C63.566406 23.535156 63.597656 23.605469 63.597656 23.605469C63.597656 23.605469 63.574219 23.535156 63.566406 23.519531L63.675781 23.53125C63.660156 23.542969 63.597656 23.605469 63.597656 23.605469C63.597656 23.605469 63.667969 23.546875 63.6875 23.53125L63.746094 23.535156C63.707031 23.554688 63.597656 23.605469 63.597656 23.605469C63.597656 23.605469 63.480469 23.539063 63.425781 23.511719 Z M 26.597656 23.609375L27.246094 23.660156C26.953125 23.707031 26.613281 23.761719 26.613281 23.765625C26.613281 23.765625 26.601563 23.695313 26.601563 23.675781C26.597656 23.636719 26.597656 23.621094 26.597656 23.609375 Z M 62.597656 23.609375L63.246094 23.660156C62.953125 23.707031 62.613281 23.761719 62.613281 23.761719C62.613281 23.761719 62.601563 23.691406 62.601563 23.671875C62.597656 23.636719 62.597656 23.621094 62.597656 23.609375 Z M 27.503906 23.683594L27.515625 23.683594C27.382813 23.808594 26.875 24.292969 26.875 24.292969L26.828125 24.234375C26.828125 24.234375 27.355469 23.800781 27.503906 23.683594 Z M 63.503906 23.683594L63.515625 23.683594C63.382813 23.808594 62.875 24.292969 62.875 24.292969L62.828125 24.234375C62.828125 24.234375 63.355469 23.800781 63.503906 23.683594 Z M 51.410156 23.6875C51.414063 23.695313 51.433594 23.855469 51.433594 23.855469 Z M 15.414063 23.6875C15.417969 23.695313 15.433594 23.855469 15.433594 23.855469L15.410156 23.691406 Z M 27.636719 23.691406L27.644531 23.691406C27.722656 23.839844 28.054688 24.496094 28.054688 24.496094L27.960938 24.535156C27.960938 24.535156 27.691406 23.839844 27.636719 23.691406 Z M 63.636719 23.691406L63.644531 23.691406C63.722656 23.839844 64.054688 24.496094 64.054688 24.496094L63.960938 24.535156C63.960938 24.535156 63.691406 23.839844 63.636719 23.691406 Z M 27.703125 23.699219L28.5625 23.769531L28.578125 23.796875C28.578125 23.800781 28.585938 23.78125 28.566406 23.855469C28.566406 23.867188 28.546875 23.917969 28.546875 23.917969C28.550781 23.917969 28.476563 24.078125 28.480469 24.078125L28.34375 24.269531C28.34375 24.269531 27.859375 23.839844 27.703125 23.699219 Z M 63.703125 23.699219L64.5625 23.769531L64.578125 23.796875C64.578125 23.804688 64.585938 23.78125 64.566406 23.851563C64.566406 23.867188 64.546875 23.917969 64.546875 23.917969C64.550781 23.917969 64.476563 24.078125 64.480469 24.078125L64.34375 24.269531C64.34375 24.269531 63.859375 23.839844 63.703125 23.699219 Z M 12 39L68 39L68 68L12 68 Z M 20 41C19.449219 41 19 41.449219 19 42C19 42.550781 19.449219 43 20 43C20.550781 43 21 42.550781 21 42C21 41.449219 20.550781 41 20 41 Z M 24 41C23.449219 41 23 41.449219 23 42C23 42.550781 23.449219 43 24 43C24.550781 43 25 42.550781 25 42C25 41.449219 24.550781 41 24 41 Z M 28 41C27.449219 41 27 41.449219 27 42C27 42.550781 27.449219 43 28 43C28.550781 43 29 42.550781 29 42C29 41.449219 28.550781 41 28 41 Z M 32 41C31.449219 41 31 41.449219 31 42C31 42.550781 31.449219 43 32 43C32.550781 43 33 42.550781 33 42C33 41.449219 32.550781 41 32 41 Z M 36 41C35.449219 41 35 41.449219 35 42C35 42.550781 35.449219 43 36 43C36.550781 43 37 42.550781 37 42C37 41.449219 36.550781 41 36 41 Z M 40 41C39.449219 41 39 41.449219 39 42C39 42.550781 39.449219 43 40 43C40.550781 43 41 42.550781 41 42C41 41.449219 40.550781 41 40 41 Z M 44 41C43.449219 41 43 41.449219 43 42C43 42.550781 43.449219 43 44 43C44.550781 43 45 42.550781 45 42C45 41.449219 44.550781 41 44 41 Z M 48 41C47.449219 41 47 41.449219 47 42C47 42.550781 47.449219 43 48 43C48.550781 43 49 42.550781 49 42C49 41.449219 48.550781 41 48 41 Z M 52 41C51.449219 41 51 41.449219 51 42C51 42.550781 51.449219 43 52 43C52.550781 43 53 42.550781 53 42C53 41.449219 52.550781 41 52 41 Z M 56 41C55.449219 41 55 41.449219 55 42C55 42.550781 55.449219 43 56 43C56.550781 43 57 42.550781 57 42C57 41.449219 56.550781 41 56 41 Z M 60 41C59.449219 41 59 41.449219 59 42C59 42.550781 59.449219 43 60 43C60.550781 43 61 42.550781 61 42C61 41.449219 60.550781 41 60 41 Z M 18 44C17.449219 44 17 44.449219 17 45C17 45.550781 17.449219 46 18 46C18.550781 46 19 45.550781 19 45C19 44.449219 18.550781 44 18 44 Z M 62 44C61.449219 44 61 44.449219 61 45C61 45.550781 61.449219 46 62 46C62.550781 46 63 45.550781 63 45C63 44.449219 62.550781 44 62 44 Z M 40 45.5C35.59375 45.5 32 49.09375 32 53.5C32 57.90625 35.59375 61.5 40 61.5C44.40625 61.5 48 57.90625 48 53.5C48 49.09375 44.40625 45.5 40 45.5 Z M 15 46C14.449219 46 14 46.449219 14 47C14 47.550781 14.449219 48 15 48C15.550781 48 16 47.550781 16 47C16 46.449219 15.550781 46 15 46 Z M 65 46C64.449219 46 64 46.449219 64 47C64 47.550781 64.449219 48 65 48C65.550781 48 66 47.550781 66 47C66 46.449219 65.550781 46 65 46 Z M 40 47.5C43.324219 47.5 46 50.175781 46 53.5C46 56.824219 43.324219 59.5 40 59.5C36.675781 59.5 34 56.824219 34 53.5C34 50.175781 36.675781 47.5 40 47.5 Z M 22 49.5C19.800781 49.5 18 51.300781 18 53.5C18 55.699219 19.800781 57.5 22 57.5C24.199219 57.5 26 55.699219 26 53.5C26 51.300781 24.199219 49.5 22 49.5 Z M 58 49.5C55.800781 49.5 54 51.300781 54 53.5C54 55.699219 55.800781 57.5 58 57.5C60.199219 57.5 62 55.699219 62 53.5C62 51.300781 60.199219 49.5 58 49.5 Z M 22 51.5C23.117188 51.5 24 52.382813 24 53.5C24 54.617188 23.117188 55.5 22 55.5C20.882813 55.5 20 54.617188 20 53.5C20 52.382813 20.882813 51.5 22 51.5 Z M 58 51.5C59.117188 51.5 60 52.382813 60 53.5C60 54.617188 59.117188 55.5 58 55.5C56.882813 55.5 56 54.617188 56 53.5C56 52.382813 56.882813 51.5 58 51.5 Z M 15 59C14.449219 59 14 59.449219 14 60C14 60.550781 14.449219 61 15 61C15.550781 61 16 60.550781 16 60C16 59.449219 15.550781 59 15 59 Z M 65 59C64.449219 59 64 59.449219 64 60C64 60.550781 64.449219 61 65 61C65.550781 61 66 60.550781 66 60C66 59.449219 65.550781 59 65 59 Z M 18 61C17.449219 61 17 61.449219 17 62C17 62.550781 17.449219 63 18 63C18.550781 63 19 62.550781 19 62C19 61.449219 18.550781 61 18 61 Z M 62 61C61.449219 61 61 61.449219 61 62C61 62.550781 61.449219 63 62 63C62.550781 63 63 62.550781 63 62C63 61.449219 62.550781 61 62 61 Z M 20 64C19.449219 64 19 64.449219 19 65C19 65.550781 19.449219 66 20 66C20.550781 66 21 65.550781 21 65C21 64.449219 20.550781 64 20 64 Z M 24 64C23.449219 64 23 64.449219 23 65C23 65.550781 23.449219 66 24 66C24.550781 66 25 65.550781 25 65C25 64.449219 24.550781 64 24 64 Z M 28 64C27.449219 64 27 64.449219 27 65C27 65.550781 27.449219 66 28 66C28.550781 66 29 65.550781 29 65C29 64.449219 28.550781 64 28 64 Z M 32 64C31.449219 64 31 64.449219 31 65C31 65.550781 31.449219 66 32 66C32.550781 66 33 65.550781 33 65C33 64.449219 32.550781 64 32 64 Z M 36 64C35.449219 64 35 64.449219 35 65C35 65.550781 35.449219 66 36 66C36.550781 66 37 65.550781 37 65C37 64.449219 36.550781 64 36 64 Z M 40 64C39.449219 64 39 64.449219 39 65C39 65.550781 39.449219 66 40 66C40.550781 66 41 65.550781 41 65C41 64.449219 40.550781 64 40 64 Z M 44 64C43.449219 64 43 64.449219 43 65C43 65.550781 43.449219 66 44 66C44.550781 66 45 65.550781 45 65C45 64.449219 44.550781 64 44 64 Z M 48 64C47.449219 64 47 64.449219 47 65C47 65.550781 47.449219 66 48 66C48.550781 66 49 65.550781 49 65C49 64.449219 48.550781 64 48 64 Z M 52 64C51.449219 64 51 64.449219 51 65C51 65.550781 51.449219 66 52 66C52.550781 66 53 65.550781 53 65C53 64.449219 52.550781 64 52 64 Z M 56 64C55.449219 64 55 64.449219 55 65C55 65.550781 55.449219 66 56 66C56.550781 66 57 65.550781 57 65C57 64.449219 56.550781 64 56 64 Z M 60 64C59.449219 64 59 64.449219 59 65C59 65.550781 59.449219 66 60 66C60.550781 66 61 65.550781 61 65C61 64.449219 60.550781 64 60 64Z" fill="#F07D29" />
</svg>