<svg xmlns="http://www.w3.org/2000/svg" xmlns:xlink="http://www.w3.org/1999/xlink" viewBox="0 0 80 80" fill="#F07D29">
  <path d="M22 10C15.384428 10 10 15.384428 10 22C10 28.615572 15.384428 34 22 34C28.615572 34 34 28.615572 34 22C34 15.384428 28.615572 10 22 10 z M 22 12C27.534692 12 32 16.465308 32 22C32 27.534692 27.534692 32 22 32C16.465308 32 12 27.534692 12 22C12 16.465308 16.465308 12 22 12 z M 48 12L48 13L48 32L68 32L68 12L48 12 z M 50 14L66 14L66 30L50 30L50 14 z M 22 15 A 1 1 0 0 0 21 16 A 1 1 0 0 0 22 17 A 1 1 0 0 0 23 16 A 1 1 0 0 0 22 15 z M 17.757812 16.757812 A 1 1 0 0 0 16.757812 17.757812 A 1 1 0 0 0 17.757812 18.757812 A 1 1 0 0 0 18.757812 17.757812 A 1 1 0 0 0 17.757812 16.757812 z M 26.242188 16.757812 A 1 1 0 0 0 25.242188 17.757812 A 1 1 0 0 0 26.242188 18.757812 A 1 1 0 0 0 27.242188 17.757812 A 1 1 0 0 0 26.242188 16.757812 z M 54 17 A 1 1 0 0 0 53 18 A 1 1 0 0 0 54 19 A 1 1 0 0 0 55 18 A 1 1 0 0 0 54 17 z M 58 17 A 1 1 0 0 0 57 18 A 1 1 0 0 0 58 19 A 1 1 0 0 0 59 18 A 1 1 0 0 0 58 17 z M 62 17 A 1 1 0 0 0 61 18 A 1 1 0 0 0 62 19 A 1 1 0 0 0 63 18 A 1 1 0 0 0 62 17 z M 16 21 A 1 1 0 0 0 15 22 A 1 1 0 0 0 16 23 A 1 1 0 0 0 17 22 A 1 1 0 0 0 16 21 z M 28 21 A 1 1 0 0 0 27 22 A 1 1 0 0 0 28 23 A 1 1 0 0 0 29 22 A 1 1 0 0 0 28 21 z M 54 21 A 1 1 0 0 0 53 22 A 1 1 0 0 0 54 23 A 1 1 0 0 0 55 22 A 1 1 0 0 0 54 21 z M 62 21 A 1 1 0 0 0 61 22 A 1 1 0 0 0 62 23 A 1 1 0 0 0 63 22 A 1 1 0 0 0 62 21 z M 54 25 A 1 1 0 0 0 53 26 A 1 1 0 0 0 54 27 A 1 1 0 0 0 55 26 A 1 1 0 0 0 54 25 z M 58 25 A 1 1 0 0 0 57 26 A 1 1 0 0 0 58 27 A 1 1 0 0 0 59 26 A 1 1 0 0 0 58 25 z M 62 25 A 1 1 0 0 0 61 26 A 1 1 0 0 0 62 27 A 1 1 0 0 0 63 26 A 1 1 0 0 0 62 25 z M 17.757812 25.242188 A 1 1 0 0 0 16.757812 26.242188 A 1 1 0 0 0 17.757812 27.242188 A 1 1 0 0 0 18.757812 26.242188 A 1 1 0 0 0 17.757812 25.242188 z M 26.242188 25.242188 A 1 1 0 0 0 25.242188 26.242188 A 1 1 0 0 0 26.242188 27.242188 A 1 1 0 0 0 27.242188 26.242188 A 1 1 0 0 0 26.242188 25.242188 z M 22 27 A 1 1 0 0 0 21 28 A 1 1 0 0 0 22 29 A 1 1 0 0 0 23 28 A 1 1 0 0 0 22 27 z M 58 43.857422L43.857422 58L44.564453 58.707031L58 72.142578L72.140625 58L58 43.857422 z M 22 44.912109L21.123047 46.521484L8.3164062 70L35.683594 70L22 44.912109 z M 58 46.6875L69.3125 58L58 69.314453L46.685547 58L58 46.6875 z M 22 49.085938L32.316406 68L11.683594 68L22 49.085938 z M 58 51 A 1 1 0 0 0 57 52 A 1 1 0 0 0 58 53 A 1 1 0 0 0 59 52 A 1 1 0 0 0 58 51 z M 55 54 A 1 1 0 0 0 54 55 A 1 1 0 0 0 55 56 A 1 1 0 0 0 56 55 A 1 1 0 0 0 55 54 z M 61 54 A 1 1 0 0 0 60 55 A 1 1 0 0 0 61 56 A 1 1 0 0 0 62 55 A 1 1 0 0 0 61 54 z M 22 55 A 1 1 0 0 0 21 56 A 1 1 0 0 0 22 57 A 1 1 0 0 0 23 56 A 1 1 0 0 0 22 55 z M 52 57 A 1 1 0 0 0 51 58 A 1 1 0 0 0 52 59 A 1 1 0 0 0 53 58 A 1 1 0 0 0 52 57 z M 64 57 A 1 1 0 0 0 63 58 A 1 1 0 0 0 64 59 A 1 1 0 0 0 65 58 A 1 1 0 0 0 64 57 z M 20 59 A 1 1 0 0 0 19 60 A 1 1 0 0 0 20 61 A 1 1 0 0 0 21 60 A 1 1 0 0 0 20 59 z M 24 59 A 1 1 0 0 0 23 60 A 1 1 0 0 0 24 61 A 1 1 0 0 0 25 60 A 1 1 0 0 0 24 59 z M 55.171875 59.828125 A 1 1 0 0 0 54.171875 60.828125 A 1 1 0 0 0 55.171875 61.828125 A 1 1 0 0 0 56.171875 60.828125 A 1 1 0 0 0 55.171875 59.828125 z M 61 60 A 1 1 0 0 0 60 61 A 1 1 0 0 0 61 62 A 1 1 0 0 0 62 61 A 1 1 0 0 0 61 60 z M 18 63 A 1 1 0 0 0 17 64 A 1 1 0 0 0 18 65 A 1 1 0 0 0 19 64 A 1 1 0 0 0 18 63 z M 22 63 A 1 1 0 0 0 21 64 A 1 1 0 0 0 22 65 A 1 1 0 0 0 23 64 A 1 1 0 0 0 22 63 z M 26 63 A 1 1 0 0 0 25 64 A 1 1 0 0 0 26 65 A 1 1 0 0 0 27 64 A 1 1 0 0 0 26 63 z M 58 63 A 1 1 0 0 0 57 64 A 1 1 0 0 0 58 65 A 1 1 0 0 0 59 64 A 1 1 0 0 0 58 63 z" fill="#F07D29" />
</svg>